<svg width="752" height="388" viewBox="0 0 752 388" fill="none" xmlns="http://www.w3.org/2000/svg">
<g clip-path="url(#clip0_2538_15347)">
<rect width="752" height="388" fill="#002417"/>
<rect y="97" width="752" height="1" fill="#29473C"/>
<rect y="194" width="752" height="1" fill="#29473C"/>
<rect y="291" width="752" height="1" fill="#29473C"/>
<rect x="36" width="1" height="389" fill="#29473C"/>
<rect x="133" width="1" height="389" fill="#29473C"/>
<rect x="230" width="1" height="389" fill="#29473C"/>
<rect x="327" width="1" height="389" fill="#29473C"/>
<rect x="424" width="1" height="389" fill="#29473C"/>
<rect x="521" width="1" height="389" fill="#29473C"/>
<rect x="618" width="1" height="389" fill="#29473C"/>
<rect x="715" width="1" height="389" fill="#29473C"/>
<rect width="752" height="388" fill="url(#paint0_linear_2538_15347)"/>
<path d="M133 52C133 40.9543 141.954 32 153 32H599C610.046 32 619 40.9543 619 52H133Z" fill="#002417"/>
<circle cx="153" cy="42" r="4" fill="#FF6259"/>
<circle cx="165" cy="42" r="4" fill="#FFC12E"/>
<circle cx="177" cy="42" r="4" fill="#29CE42"/>
<path d="M133 52H619V332C619 345.255 608.255 356 595 356H157C143.745 356 133 345.255 133 332V52Z" fill="url(#paint1_linear_2538_15347)"/>
<g clip-path="url(#clip1_2538_15347)">
<g filter="url(#filter0_i_2538_15347)">
<rect width="52.75" height="215" transform="translate(181 103)" fill="white" fill-opacity="0.01"/>
<line x1="207.875" y1="111" x2="207.875" y2="310" stroke="#0F2A20"/>
<line x1="207.875" y1="310" x2="207.875" y2="318" stroke="#29473C"/>
</g>
<path d="M201.008 326L200.924 327.74V335C200.46 336.168 199.86 337.032 199.124 337.592L198.008 336.572L198.104 336.464C198.216 336.464 198.364 336.384 198.548 336.224C198.74 336.064 198.936 335.84 199.136 335.552C199.344 335.272 199.532 334.96 199.7 334.616V327.74L199.616 326H201.008ZM202.65 332.996C202.65 332.524 202.754 332.104 202.962 331.736C203.178 331.36 203.47 331.068 203.838 330.86C204.214 330.652 204.63 330.548 205.086 330.548C205.446 330.548 205.802 330.584 206.154 330.656C206.514 330.728 206.798 330.824 207.006 330.944V330.236C207.006 329.748 206.874 329.388 206.61 329.156C206.354 328.924 205.954 328.808 205.41 328.808C204.922 328.808 204.482 328.9 204.09 329.084C203.706 329.26 203.406 329.512 203.19 329.84L203.058 329.816L203.226 328.46C203.498 328.196 203.838 327.992 204.246 327.848C204.662 327.704 205.11 327.632 205.59 327.632C206.414 327.632 207.054 327.836 207.51 328.244C207.974 328.644 208.206 329.22 208.206 329.972V333.212L208.29 335H207.042L207.006 334.28C206.862 334.52 206.59 334.732 206.19 334.916C205.79 335.1 205.382 335.192 204.966 335.192C204.238 335.192 203.67 335 203.262 334.616C202.854 334.224 202.65 333.684 202.65 332.996ZM203.898 332.888C203.898 333.32 203.99 333.628 204.174 333.812C204.366 333.996 204.694 334.088 205.158 334.088C205.47 334.088 205.814 334.02 206.19 333.884C206.574 333.748 206.846 333.592 207.006 333.416V332.06C206.814 331.94 206.546 331.84 206.202 331.76C205.858 331.68 205.51 331.64 205.158 331.64C204.718 331.64 204.398 331.744 204.198 331.952C203.998 332.16 203.898 332.472 203.898 332.888ZM214.19 333.2V330.032C214.19 329.216 213.826 328.808 213.098 328.808C212.794 328.808 212.474 328.896 212.138 329.072C211.802 329.24 211.546 329.464 211.37 329.744V333.2L211.454 335H210.086L210.17 333.2V329.54L210.086 327.8H211.13L211.37 328.76C211.586 328.432 211.89 328.176 212.282 327.992C212.682 327.808 213.11 327.716 213.566 327.716C214.134 327.716 214.578 327.896 214.898 328.256C215.226 328.608 215.39 329.108 215.39 329.756V333.2L215.474 335H214.106L214.19 333.2Z" fill="#759187"/>
<line x1="260.625" y1="111" x2="260.625" y2="310" stroke="#0F2A20"/>
<line x1="260.625" y1="310" x2="260.625" y2="318" stroke="#29473C"/>
<path d="M252.041 327.176V329.78H255.341L255.149 330.956H252.041V333.2L252.113 335H250.721L250.805 333.2V327.74L250.721 326H255.905L255.725 327.176H252.041ZM259.714 335.144C258.65 335.144 257.886 334.832 257.422 334.208C256.966 333.576 256.738 332.636 256.738 331.388C256.738 330.172 256.982 329.24 257.47 328.592C257.958 327.936 258.706 327.608 259.714 327.608C260.666 327.608 261.37 327.86 261.826 328.364C262.29 328.86 262.562 329.668 262.642 330.788L262.342 331.94H258.01C258.026 332.436 258.094 332.832 258.214 333.128C258.342 333.416 258.542 333.632 258.814 333.776C259.086 333.92 259.462 333.992 259.942 333.992C260.43 333.992 260.866 333.94 261.25 333.836C261.642 333.724 261.97 333.572 262.234 333.38L262.438 333.476L262.174 334.532C261.878 334.748 261.542 334.904 261.166 335C260.79 335.096 260.306 335.144 259.714 335.144ZM261.394 330.932C261.394 330.164 261.266 329.616 261.01 329.288C260.762 328.952 260.346 328.784 259.762 328.784C259.338 328.784 258.998 328.856 258.742 329C258.494 329.136 258.31 329.36 258.19 329.672C258.078 329.984 258.014 330.404 257.998 330.932H261.394ZM267.148 327.656C268.044 327.656 268.708 327.956 269.14 328.556C269.58 329.156 269.8 330.1 269.8 331.388C269.8 332.604 269.564 333.528 269.092 334.16C268.628 334.784 267.96 335.096 267.088 335.096C266.76 335.096 266.444 335.02 266.14 334.868C265.844 334.708 265.616 334.496 265.456 334.232L265.408 335H264.172L264.256 333.212V327.14L264.172 325.4H265.54L265.456 327.14V328.124C265.896 327.812 266.46 327.656 267.148 327.656ZM266.956 333.944C267.524 333.944 267.932 333.748 268.18 333.356C268.428 332.964 268.552 332.308 268.552 331.388C268.552 330.716 268.496 330.196 268.384 329.828C268.28 329.46 268.104 329.2 267.856 329.048C267.616 328.896 267.28 328.82 266.848 328.82C266.264 328.82 265.8 328.9 265.456 329.06V333.428C265.776 333.772 266.276 333.944 266.956 333.944Z" fill="#759187"/>
<line x1="313.375" y1="111" x2="313.375" y2="310" stroke="#0F2A20"/>
<line x1="313.375" y1="310" x2="313.375" y2="318" stroke="#29473C"/>
<path d="M309.511 333.2V326.744L307.387 335H305.563L303.487 326.72V333.2L303.559 335H302.299L302.383 333.2V327.74L302.323 326H304.627L306.547 334.016L308.551 326H310.819L310.747 327.74V333.2L310.831 335H309.427L309.511 333.2ZM312.486 332.996C312.486 332.524 312.59 332.104 312.798 331.736C313.014 331.36 313.306 331.068 313.674 330.86C314.05 330.652 314.466 330.548 314.922 330.548C315.282 330.548 315.638 330.584 315.99 330.656C316.35 330.728 316.634 330.824 316.842 330.944V330.236C316.842 329.748 316.71 329.388 316.446 329.156C316.19 328.924 315.79 328.808 315.246 328.808C314.758 328.808 314.318 328.9 313.926 329.084C313.542 329.26 313.242 329.512 313.026 329.84L312.894 329.816L313.062 328.46C313.334 328.196 313.674 327.992 314.082 327.848C314.498 327.704 314.946 327.632 315.426 327.632C316.25 327.632 316.89 327.836 317.346 328.244C317.81 328.644 318.042 329.22 318.042 329.972V333.212L318.126 335H316.878L316.842 334.28C316.698 334.52 316.426 334.732 316.026 334.916C315.626 335.1 315.218 335.192 314.802 335.192C314.074 335.192 313.506 335 313.098 334.616C312.69 334.224 312.486 333.684 312.486 332.996ZM313.734 332.888C313.734 333.32 313.826 333.628 314.01 333.812C314.202 333.996 314.53 334.088 314.994 334.088C315.306 334.088 315.65 334.02 316.026 333.884C316.41 333.748 316.682 333.592 316.842 333.416V332.06C316.65 331.94 316.382 331.84 316.038 331.76C315.694 331.68 315.346 331.64 314.994 331.64C314.554 331.64 314.234 331.744 314.034 331.952C313.834 332.16 313.734 332.472 313.734 332.888ZM322.874 327.716C323.45 327.716 323.85 327.772 324.074 327.884L323.882 328.94L323.726 329.048C323.63 328.976 323.474 328.916 323.258 328.868C323.042 328.82 322.822 328.796 322.598 328.796C322.006 328.796 321.542 329.04 321.206 329.528V333.2L321.29 335H319.922L320.006 333.2V329.54L319.922 327.8H320.966L321.182 328.616C321.382 328.328 321.63 328.108 321.926 327.956C322.222 327.796 322.538 327.716 322.874 327.716Z" fill="#759187"/>
<line x1="366.125" y1="111" x2="366.125" y2="310" stroke="#0F2A20"/>
<line x1="366.125" y1="310" x2="366.125" y2="318" stroke="#29473C"/>
<path d="M362.819 335H361.307L360.887 333.2L360.767 332.78L357.575 332.804L357.455 333.2L357.047 335H355.679L356.291 333.2L357.947 327.8L358.403 326H360.083L360.515 327.8L362.195 333.2L362.819 335ZM360.419 331.604L359.171 327.344L357.923 331.628L360.419 331.604ZM367.105 327.656C368.001 327.656 368.665 327.956 369.097 328.556C369.537 329.156 369.757 330.1 369.757 331.388C369.757 332.604 369.521 333.528 369.049 334.16C368.585 334.784 367.917 335.096 367.045 335.096C366.717 335.096 366.401 335.016 366.097 334.856C365.801 334.696 365.573 334.484 365.413 334.22V335.6L365.497 337.4H364.129L364.213 335.6V329.588L364.129 327.8H365.257L365.317 328.196C365.765 327.836 366.361 327.656 367.105 327.656ZM366.913 333.944C367.481 333.944 367.889 333.748 368.137 333.356C368.385 332.964 368.509 332.308 368.509 331.388C368.509 330.716 368.453 330.196 368.341 329.828C368.237 329.46 368.061 329.2 367.813 329.048C367.573 328.896 367.237 328.82 366.805 328.82C366.205 328.82 365.741 328.904 365.413 329.072V333.428C365.733 333.772 366.233 333.944 366.913 333.944ZM374.37 327.716C374.946 327.716 375.346 327.772 375.57 327.884L375.378 328.94L375.222 329.048C375.126 328.976 374.97 328.916 374.754 328.868C374.538 328.82 374.318 328.796 374.094 328.796C373.502 328.796 373.038 329.04 372.702 329.528V333.2L372.786 335H371.418L371.502 333.2V329.54L371.418 327.8H372.462L372.678 328.616C372.878 328.328 373.126 328.108 373.422 327.956C373.718 327.796 374.034 327.716 374.37 327.716Z" fill="#759187"/>
<line x1="418.875" y1="111" x2="418.875" y2="310" stroke="#0F2A20"/>
<line x1="418.875" y1="310" x2="418.875" y2="318" stroke="#29473C"/>
<path d="M414.331 333.2V326.744L412.207 335H410.383L408.307 326.72V333.2L408.379 335H407.119L407.203 333.2V327.74L407.143 326H409.447L411.367 334.016L413.371 326H415.639L415.567 327.74V333.2L415.651 335H414.247L414.331 333.2ZM417.306 332.996C417.306 332.524 417.41 332.104 417.618 331.736C417.834 331.36 418.126 331.068 418.494 330.86C418.87 330.652 419.286 330.548 419.742 330.548C420.102 330.548 420.458 330.584 420.81 330.656C421.17 330.728 421.454 330.824 421.662 330.944V330.236C421.662 329.748 421.53 329.388 421.266 329.156C421.01 328.924 420.61 328.808 420.066 328.808C419.578 328.808 419.138 328.9 418.746 329.084C418.362 329.26 418.062 329.512 417.846 329.84L417.714 329.816L417.882 328.46C418.154 328.196 418.494 327.992 418.902 327.848C419.318 327.704 419.766 327.632 420.246 327.632C421.07 327.632 421.71 327.836 422.166 328.244C422.63 328.644 422.862 329.22 422.862 329.972V333.212L422.946 335H421.698L421.662 334.28C421.518 334.52 421.246 334.732 420.846 334.916C420.446 335.1 420.038 335.192 419.622 335.192C418.894 335.192 418.326 335 417.918 334.616C417.51 334.224 417.306 333.684 417.306 332.996ZM418.554 332.888C418.554 333.32 418.646 333.628 418.83 333.812C419.022 333.996 419.35 334.088 419.814 334.088C420.126 334.088 420.47 334.02 420.846 333.884C421.23 333.748 421.502 333.592 421.662 333.416V332.06C421.47 331.94 421.202 331.84 420.858 331.76C420.514 331.68 420.166 331.64 419.814 331.64C419.374 331.64 419.054 331.744 418.854 331.952C418.654 332.16 418.554 332.472 418.554 332.888ZM430.347 327.8L429.711 329.54L428.007 335C427.551 336.152 426.903 337.016 426.063 337.592L425.055 336.656L425.127 336.488C425.399 336.416 425.703 336.228 426.039 335.924C426.383 335.628 426.631 335.32 426.783 335H426.387L424.731 329.54L424.083 327.8H425.631L426.015 329.54L427.215 333.932L428.427 329.54L428.811 327.8H430.347Z" fill="#759187"/>
<line x1="471.625" y1="111" x2="471.625" y2="310" stroke="#0F2A20"/>
<line x1="471.625" y1="310" x2="471.625" y2="318" stroke="#29473C"/>
<path d="M464.74 326L464.656 327.74V335C464.192 336.168 463.592 337.032 462.856 337.592L461.74 336.572L461.836 336.464C461.948 336.464 462.096 336.384 462.28 336.224C462.472 336.064 462.668 335.84 462.868 335.552C463.076 335.272 463.264 334.96 463.432 334.616V327.74L463.348 326H464.74ZM471.902 333.248L471.986 335H470.75L470.69 334.052C470.474 334.388 470.166 334.656 469.766 334.856C469.374 335.048 468.958 335.144 468.518 335.144C467.95 335.144 467.502 334.96 467.174 334.592C466.846 334.224 466.682 333.708 466.682 333.044V329.6L466.61 327.8H467.966L467.882 329.6V332.768C467.882 333.624 468.25 334.052 468.986 334.052C469.274 334.052 469.586 333.956 469.922 333.764C470.258 333.572 470.518 333.336 470.702 333.056V329.6L470.63 327.8H471.986L471.902 329.6V333.248ZM477.958 333.2V330.032C477.958 329.216 477.594 328.808 476.866 328.808C476.562 328.808 476.242 328.896 475.906 329.072C475.57 329.24 475.314 329.464 475.138 329.744V333.2L475.222 335H473.854L473.938 333.2V329.54L473.854 327.8H474.898L475.138 328.76C475.354 328.432 475.658 328.176 476.05 327.992C476.45 327.808 476.878 327.716 477.334 327.716C477.902 327.716 478.346 327.896 478.666 328.256C478.994 328.608 479.158 329.108 479.158 329.756V333.2L479.242 335H477.874L477.958 333.2Z" fill="#759187"/>
<line x1="524.375" y1="111" x2="524.375" y2="310" stroke="#0F2A20"/>
<line x1="524.375" y1="310" x2="524.375" y2="318" stroke="#29473C"/>
<path d="M519.465 326L519.381 327.74V335C518.917 336.168 518.317 337.032 517.581 337.592L516.465 336.572L516.561 336.464C516.673 336.464 516.821 336.384 517.005 336.224C517.197 336.064 517.393 335.84 517.593 335.552C517.801 335.272 517.989 334.96 518.157 334.616V327.74L518.073 326H519.465ZM526.627 333.248L526.711 335H525.475L525.415 334.052C525.199 334.388 524.891 334.656 524.491 334.856C524.099 335.048 523.683 335.144 523.243 335.144C522.675 335.144 522.227 334.96 521.899 334.592C521.571 334.224 521.407 333.708 521.407 333.044V329.6L521.335 327.8H522.691L522.607 329.6V332.768C522.607 333.624 522.975 334.052 523.711 334.052C523.999 334.052 524.311 333.956 524.647 333.764C524.983 333.572 525.243 333.336 525.427 333.056V329.6L525.355 327.8H526.711L526.627 329.6V333.248ZM528.663 333.2V327.14L528.579 325.4H529.947L529.863 327.14V333.2L529.947 335H528.579L528.663 333.2Z" fill="#759187"/>
<line x1="577.125" y1="111" x2="577.125" y2="310" stroke="#0F2A20"/>
<line x1="577.125" y1="310" x2="577.125" y2="318" stroke="#29473C"/>
<path d="M572.957 335H571.445L571.025 333.2L570.905 332.78L567.713 332.804L567.593 333.2L567.185 335H565.817L566.429 333.2L568.085 327.8L568.541 326H570.221L570.653 327.8L572.333 333.2L572.957 335ZM570.557 331.604L569.309 327.344L568.061 331.628L570.557 331.604ZM579.5 333.248L579.584 335H578.348L578.288 334.052C578.072 334.388 577.764 334.656 577.364 334.856C576.972 335.048 576.556 335.144 576.116 335.144C575.548 335.144 575.1 334.96 574.772 334.592C574.444 334.224 574.28 333.708 574.28 333.044V329.6L574.208 327.8H575.564L575.48 329.6V332.768C575.48 333.624 575.848 334.052 576.584 334.052C576.872 334.052 577.184 333.956 577.52 333.764C577.856 333.572 578.116 333.336 578.3 333.056V329.6L578.228 327.8H579.584L579.5 329.6V333.248ZM586.852 327.8L586.78 329.588V333.872C586.78 335.096 586.448 336.008 585.784 336.608C585.12 337.216 584.16 337.52 582.904 337.52L582.364 336.596L582.448 336.5C583.064 336.5 583.608 336.408 584.08 336.224C584.56 336.04 584.928 335.78 585.184 335.444C585.448 335.116 585.58 334.74 585.58 334.316V334.184C585.42 334.464 585.184 334.688 584.872 334.856C584.568 335.016 584.244 335.096 583.9 335.096C583.052 335.096 582.396 334.78 581.932 334.148C581.468 333.516 581.236 332.596 581.236 331.388C581.236 330.1 581.452 329.156 581.884 328.556C582.324 327.956 582.992 327.656 583.888 327.656C584.64 327.656 585.232 327.836 585.664 328.196L585.736 327.8H586.852ZM584.068 333.944C584.748 333.944 585.252 333.772 585.58 333.428V329.072C585.252 328.904 584.788 328.82 584.188 328.82C583.748 328.82 583.404 328.896 583.156 329.048C582.916 329.2 582.744 329.46 582.64 329.828C582.536 330.196 582.484 330.716 582.484 331.388C582.484 332.308 582.608 332.964 582.856 333.356C583.104 333.748 583.508 333.944 584.068 333.944Z" fill="#759187"/>
<path d="M152.113 111.308C152.585 111.556 152.949 111.88 153.205 112.28C153.461 112.68 153.589 113.148 153.589 113.684C153.589 114.468 153.333 115.084 152.821 115.532C152.309 115.972 151.597 116.192 150.685 116.192C149.733 116.192 149.009 115.988 148.513 115.58C148.017 115.164 147.769 114.568 147.769 113.792C147.769 113.296 147.881 112.848 148.105 112.448C148.337 112.04 148.677 111.704 149.125 111.44C148.741 111.208 148.437 110.92 148.213 110.576C147.997 110.224 147.889 109.848 147.889 109.448C147.889 108.616 148.141 107.968 148.645 107.504C149.157 107.04 149.853 106.808 150.733 106.808C151.533 106.808 152.173 107.024 152.653 107.456C153.133 107.88 153.373 108.46 153.373 109.196C153.373 110.044 152.953 110.748 152.113 111.308ZM150.661 107.984C150.157 107.984 149.777 108.096 149.521 108.32C149.265 108.536 149.137 108.852 149.137 109.268C149.137 109.628 149.301 109.944 149.629 110.216C149.965 110.48 150.485 110.728 151.189 110.96C151.493 110.736 151.733 110.472 151.909 110.168C152.093 109.864 152.185 109.564 152.185 109.268C152.185 108.86 152.053 108.544 151.789 108.32C151.533 108.096 151.157 107.984 150.661 107.984ZM150.601 114.98C151.177 114.98 151.609 114.868 151.897 114.644C152.193 114.412 152.341 114.068 152.341 113.612C152.341 113.22 152.157 112.884 151.789 112.604C151.429 112.324 150.861 112.072 150.085 111.848C149.717 112.056 149.433 112.312 149.233 112.616C149.041 112.92 148.945 113.244 148.945 113.588C148.945 114.044 149.085 114.392 149.365 114.632C149.645 114.864 150.057 114.98 150.601 114.98ZM157.907 116.192C156.899 116.192 156.155 115.82 155.675 115.076C155.203 114.324 154.967 113.108 154.967 111.428C154.967 109.812 155.203 108.64 155.675 107.912C156.155 107.176 156.899 106.808 157.907 106.808C158.915 106.808 159.655 107.176 160.127 107.912C160.607 108.64 160.847 109.812 160.847 111.428C160.847 113.108 160.607 114.324 160.127 115.076C159.655 115.82 158.915 116.192 157.907 116.192ZM157.907 115.016C158.323 115.016 158.651 114.908 158.891 114.692C159.131 114.476 159.307 114.116 159.419 113.612C159.539 113.1 159.599 112.396 159.599 111.5C159.599 110.604 159.539 109.904 159.419 109.4C159.307 108.888 159.131 108.524 158.891 108.308C158.651 108.092 158.323 107.984 157.907 107.984C157.491 107.984 157.163 108.092 156.923 108.308C156.683 108.524 156.503 108.888 156.383 109.4C156.271 109.904 156.215 110.604 156.215 111.5C156.215 112.396 156.271 113.1 156.383 113.612C156.503 114.116 156.683 114.476 156.923 114.692C157.163 114.908 157.491 115.016 157.907 115.016ZM165.301 116.192C164.293 116.192 163.549 115.82 163.069 115.076C162.597 114.324 162.361 113.108 162.361 111.428C162.361 109.812 162.597 108.64 163.069 107.912C163.549 107.176 164.293 106.808 165.301 106.808C166.309 106.808 167.049 107.176 167.521 107.912C168.001 108.64 168.241 109.812 168.241 111.428C168.241 113.108 168.001 114.324 167.521 115.076C167.049 115.82 166.309 116.192 165.301 116.192ZM165.301 115.016C165.717 115.016 166.045 114.908 166.285 114.692C166.525 114.476 166.701 114.116 166.813 113.612C166.933 113.1 166.993 112.396 166.993 111.5C166.993 110.604 166.933 109.904 166.813 109.4C166.701 108.888 166.525 108.524 166.285 108.308C166.045 108.092 165.717 107.984 165.301 107.984C164.885 107.984 164.557 108.092 164.317 108.308C164.077 108.524 163.897 108.888 163.777 109.4C163.665 109.904 163.609 110.604 163.609 111.5C163.609 112.396 163.665 113.1 163.777 113.612C163.897 114.116 164.077 114.476 164.317 114.692C164.557 114.908 164.885 115.016 165.301 115.016Z" fill="#759187"/>
<line x1="181" y1="111.5" x2="603" y2="111.5" stroke="#0F2A20"/>
<path d="M153.728 132.487L151.016 140.875H149.684L152.312 132.991H148.292L148.184 132.943L148.46 131.875H153.728V132.487ZM157.907 141.067C156.899 141.067 156.155 140.695 155.675 139.951C155.203 139.199 154.967 137.983 154.967 136.303C154.967 134.687 155.203 133.515 155.675 132.787C156.155 132.051 156.899 131.683 157.907 131.683C158.915 131.683 159.655 132.051 160.127 132.787C160.607 133.515 160.847 134.687 160.847 136.303C160.847 137.983 160.607 139.199 160.127 139.951C159.655 140.695 158.915 141.067 157.907 141.067ZM157.907 139.891C158.323 139.891 158.651 139.783 158.891 139.567C159.131 139.351 159.307 138.991 159.419 138.487C159.539 137.975 159.599 137.271 159.599 136.375C159.599 135.479 159.539 134.779 159.419 134.275C159.307 133.763 159.131 133.399 158.891 133.183C158.651 132.967 158.323 132.859 157.907 132.859C157.491 132.859 157.163 132.967 156.923 133.183C156.683 133.399 156.503 133.763 156.383 134.275C156.271 134.779 156.215 135.479 156.215 136.375C156.215 137.271 156.271 137.975 156.383 138.487C156.503 138.991 156.683 139.351 156.923 139.567C157.163 139.783 157.491 139.891 157.907 139.891ZM165.301 141.067C164.293 141.067 163.549 140.695 163.069 139.951C162.597 139.199 162.361 137.983 162.361 136.303C162.361 134.687 162.597 133.515 163.069 132.787C163.549 132.051 164.293 131.683 165.301 131.683C166.309 131.683 167.049 132.051 167.521 132.787C168.001 133.515 168.241 134.687 168.241 136.303C168.241 137.983 168.001 139.199 167.521 139.951C167.049 140.695 166.309 141.067 165.301 141.067ZM165.301 139.891C165.717 139.891 166.045 139.783 166.285 139.567C166.525 139.351 166.701 138.991 166.813 138.487C166.933 137.975 166.993 137.271 166.993 136.375C166.993 135.479 166.933 134.779 166.813 134.275C166.701 133.763 166.525 133.399 166.285 133.183C166.045 132.967 165.717 132.859 165.301 132.859C164.885 132.859 164.557 132.967 164.317 133.183C164.077 133.399 163.897 133.763 163.777 134.275C163.665 134.779 163.609 135.479 163.609 136.375C163.609 137.271 163.665 137.975 163.777 138.487C163.897 138.991 164.077 139.351 164.317 139.567C164.557 139.783 164.885 139.891 165.301 139.891Z" fill="#759187"/>
<line x1="181" y1="136.375" x2="603" y2="136.375" stroke="#0F2A20"/>
<path d="M151.105 160.026C151.897 160.026 152.509 160.274 152.941 160.77C153.373 161.258 153.589 161.998 153.589 162.99C153.589 163.59 153.473 164.114 153.241 164.562C153.017 165.002 152.693 165.342 152.269 165.582C151.853 165.822 151.369 165.942 150.817 165.942C150.113 165.942 149.545 165.79 149.113 165.486C148.681 165.174 148.365 164.69 148.165 164.034C147.965 163.378 147.865 162.518 147.865 161.454C147.865 159.95 148.141 158.774 148.693 157.926C149.253 157.07 150.045 156.642 151.069 156.642C151.525 156.642 151.897 156.682 152.185 156.762C152.473 156.842 152.753 156.982 153.025 157.182L152.809 158.322L152.677 158.298C152.421 158.114 152.177 157.986 151.945 157.914C151.713 157.842 151.421 157.806 151.069 157.806C149.813 157.806 149.161 158.79 149.113 160.758C149.369 160.526 149.665 160.346 150.001 160.218C150.345 160.09 150.713 160.026 151.105 160.026ZM150.757 164.754C151.253 164.754 151.641 164.602 151.921 164.298C152.201 163.994 152.341 163.558 152.341 162.99C152.341 162.374 152.201 161.922 151.921 161.634C151.649 161.346 151.245 161.202 150.709 161.202C150.421 161.202 150.113 161.27 149.785 161.406C149.465 161.542 149.241 161.706 149.113 161.898V162.21C149.113 163.05 149.253 163.686 149.533 164.118C149.813 164.542 150.221 164.754 150.757 164.754ZM157.907 165.942C156.899 165.942 156.155 165.57 155.675 164.826C155.203 164.074 154.967 162.858 154.967 161.178C154.967 159.562 155.203 158.39 155.675 157.662C156.155 156.926 156.899 156.558 157.907 156.558C158.915 156.558 159.655 156.926 160.127 157.662C160.607 158.39 160.847 159.562 160.847 161.178C160.847 162.858 160.607 164.074 160.127 164.826C159.655 165.57 158.915 165.942 157.907 165.942ZM157.907 164.766C158.323 164.766 158.651 164.658 158.891 164.442C159.131 164.226 159.307 163.866 159.419 163.362C159.539 162.85 159.599 162.146 159.599 161.25C159.599 160.354 159.539 159.654 159.419 159.15C159.307 158.638 159.131 158.274 158.891 158.058C158.651 157.842 158.323 157.734 157.907 157.734C157.491 157.734 157.163 157.842 156.923 158.058C156.683 158.274 156.503 158.638 156.383 159.15C156.271 159.654 156.215 160.354 156.215 161.25C156.215 162.146 156.271 162.85 156.383 163.362C156.503 163.866 156.683 164.226 156.923 164.442C157.163 164.658 157.491 164.766 157.907 164.766ZM165.301 165.942C164.293 165.942 163.549 165.57 163.069 164.826C162.597 164.074 162.361 162.858 162.361 161.178C162.361 159.562 162.597 158.39 163.069 157.662C163.549 156.926 164.293 156.558 165.301 156.558C166.309 156.558 167.049 156.926 167.521 157.662C168.001 158.39 168.241 159.562 168.241 161.178C168.241 162.858 168.001 164.074 167.521 164.826C167.049 165.57 166.309 165.942 165.301 165.942ZM165.301 164.766C165.717 164.766 166.045 164.658 166.285 164.442C166.525 164.226 166.701 163.866 166.813 163.362C166.933 162.85 166.993 162.146 166.993 161.25C166.993 160.354 166.933 159.654 166.813 159.15C166.701 158.638 166.525 158.274 166.285 158.058C166.045 157.842 165.717 157.734 165.301 157.734C164.885 157.734 164.557 157.842 164.317 158.058C164.077 158.274 163.897 158.638 163.777 159.15C163.665 159.654 163.609 160.354 163.609 161.25C163.609 162.146 163.665 162.85 163.777 163.362C163.897 163.866 164.077 164.226 164.317 164.442C164.557 164.658 164.885 164.766 165.301 164.766Z" fill="#759187"/>
<line x1="181" y1="161.25" x2="603" y2="161.25" stroke="#0F2A20"/>
<path d="M150.175 185.177C151.279 185.177 152.103 185.413 152.647 185.885C153.199 186.357 153.475 187.081 153.475 188.057C153.475 188.609 153.355 189.093 153.115 189.509C152.883 189.925 152.555 190.249 152.131 190.481C151.707 190.705 151.215 190.817 150.655 190.817C150.183 190.817 149.739 190.753 149.323 190.625C148.907 190.489 148.563 190.301 148.291 190.061L148.135 188.753L148.267 188.729C148.483 189.017 148.787 189.245 149.179 189.413C149.571 189.573 150.007 189.653 150.487 189.653C151.007 189.653 151.419 189.513 151.723 189.233C152.035 188.945 152.191 188.553 152.191 188.057C152.191 187.457 152.023 187.017 151.687 186.737C151.359 186.449 150.855 186.305 150.175 186.305H148.411V185.873L148.783 181.625H153.187L153.031 182.621L152.839 182.753H149.911L149.743 185.177H150.175ZM157.907 190.817C156.899 190.817 156.155 190.445 155.675 189.701C155.203 188.949 154.967 187.733 154.967 186.053C154.967 184.437 155.203 183.265 155.675 182.537C156.155 181.801 156.899 181.433 157.907 181.433C158.915 181.433 159.655 181.801 160.127 182.537C160.607 183.265 160.847 184.437 160.847 186.053C160.847 187.733 160.607 188.949 160.127 189.701C159.655 190.445 158.915 190.817 157.907 190.817ZM157.907 189.641C158.323 189.641 158.651 189.533 158.891 189.317C159.131 189.101 159.307 188.741 159.419 188.237C159.539 187.725 159.599 187.021 159.599 186.125C159.599 185.229 159.539 184.529 159.419 184.025C159.307 183.513 159.131 183.149 158.891 182.933C158.651 182.717 158.323 182.609 157.907 182.609C157.491 182.609 157.163 182.717 156.923 182.933C156.683 183.149 156.503 183.513 156.383 184.025C156.271 184.529 156.215 185.229 156.215 186.125C156.215 187.021 156.271 187.725 156.383 188.237C156.503 188.741 156.683 189.101 156.923 189.317C157.163 189.533 157.491 189.641 157.907 189.641ZM165.301 190.817C164.293 190.817 163.549 190.445 163.069 189.701C162.597 188.949 162.361 187.733 162.361 186.053C162.361 184.437 162.597 183.265 163.069 182.537C163.549 181.801 164.293 181.433 165.301 181.433C166.309 181.433 167.049 181.801 167.521 182.537C168.001 183.265 168.241 184.437 168.241 186.053C168.241 187.733 168.001 188.949 167.521 189.701C167.049 190.445 166.309 190.817 165.301 190.817ZM165.301 189.641C165.717 189.641 166.045 189.533 166.285 189.317C166.525 189.101 166.701 188.741 166.813 188.237C166.933 187.725 166.993 187.021 166.993 186.125C166.993 185.229 166.933 184.529 166.813 184.025C166.701 183.513 166.525 183.149 166.285 182.933C166.045 182.717 165.717 182.609 165.301 182.609C164.885 182.609 164.557 182.717 164.317 182.933C164.077 183.149 163.897 183.513 163.777 184.025C163.665 184.529 163.609 185.229 163.609 186.125C163.609 187.021 163.665 187.725 163.777 188.237C163.897 188.741 164.077 189.101 164.317 189.317C164.557 189.533 164.885 189.641 165.301 189.641Z" fill="#759187"/>
<line x1="181" y1="186.125" x2="603" y2="186.125" stroke="#0F2A20"/>
<path d="M152.662 213.448V213.7L152.746 215.5H151.39L151.462 213.7V213.448H147.514V212.8L151.666 206.5H152.662V212.32H153.766V213.448H152.662ZM151.462 212.32V208.54L149.146 212.32H151.462ZM157.907 215.692C156.899 215.692 156.155 215.32 155.675 214.576C155.203 213.824 154.967 212.608 154.967 210.928C154.967 209.312 155.203 208.14 155.675 207.412C156.155 206.676 156.899 206.308 157.907 206.308C158.915 206.308 159.655 206.676 160.127 207.412C160.607 208.14 160.847 209.312 160.847 210.928C160.847 212.608 160.607 213.824 160.127 214.576C159.655 215.32 158.915 215.692 157.907 215.692ZM157.907 214.516C158.323 214.516 158.651 214.408 158.891 214.192C159.131 213.976 159.307 213.616 159.419 213.112C159.539 212.6 159.599 211.896 159.599 211C159.599 210.104 159.539 209.404 159.419 208.9C159.307 208.388 159.131 208.024 158.891 207.808C158.651 207.592 158.323 207.484 157.907 207.484C157.491 207.484 157.163 207.592 156.923 207.808C156.683 208.024 156.503 208.388 156.383 208.9C156.271 209.404 156.215 210.104 156.215 211C156.215 211.896 156.271 212.6 156.383 213.112C156.503 213.616 156.683 213.976 156.923 214.192C157.163 214.408 157.491 214.516 157.907 214.516ZM165.301 215.692C164.293 215.692 163.549 215.32 163.069 214.576C162.597 213.824 162.361 212.608 162.361 210.928C162.361 209.312 162.597 208.14 163.069 207.412C163.549 206.676 164.293 206.308 165.301 206.308C166.309 206.308 167.049 206.676 167.521 207.412C168.001 208.14 168.241 209.312 168.241 210.928C168.241 212.608 168.001 213.824 167.521 214.576C167.049 215.32 166.309 215.692 165.301 215.692ZM165.301 214.516C165.717 214.516 166.045 214.408 166.285 214.192C166.525 213.976 166.701 213.616 166.813 213.112C166.933 212.6 166.993 211.896 166.993 211C166.993 210.104 166.933 209.404 166.813 208.9C166.701 208.388 166.525 208.024 166.285 207.808C166.045 207.592 165.717 207.484 165.301 207.484C164.885 207.484 164.557 207.592 164.317 207.808C164.077 208.024 163.897 208.388 163.777 208.9C163.665 209.404 163.609 210.104 163.609 211C163.609 211.896 163.665 212.6 163.777 213.112C163.897 213.616 164.077 213.976 164.317 214.192C164.557 214.408 164.885 214.516 165.301 214.516Z" fill="#759187"/>
<line x1="181" y1="211" x2="603" y2="211" stroke="#0F2A20"/>
<path d="M151.25 235.155C152.002 235.315 152.57 235.635 152.954 236.115C153.346 236.595 153.542 237.203 153.542 237.939C153.542 238.739 153.282 239.379 152.762 239.859C152.242 240.331 151.514 240.567 150.578 240.567C150.138 240.567 149.718 240.503 149.318 240.375C148.918 240.239 148.578 240.051 148.298 239.811L148.142 238.491L148.274 238.467C148.53 238.763 148.85 238.995 149.234 239.163C149.618 239.323 150.034 239.403 150.482 239.403C151.042 239.403 151.482 239.263 151.802 238.983C152.122 238.703 152.282 238.315 152.282 237.819C152.282 237.259 152.074 236.835 151.658 236.547C151.242 236.251 150.646 236.103 149.87 236.103H149.594V235.527L151.562 232.491H148.31L148.226 232.359L148.586 231.375H153.254V231.963L151.25 235.155ZM157.907 240.567C156.899 240.567 156.155 240.195 155.675 239.451C155.203 238.699 154.967 237.483 154.967 235.803C154.967 234.187 155.203 233.015 155.675 232.287C156.155 231.551 156.899 231.183 157.907 231.183C158.915 231.183 159.655 231.551 160.127 232.287C160.607 233.015 160.847 234.187 160.847 235.803C160.847 237.483 160.607 238.699 160.127 239.451C159.655 240.195 158.915 240.567 157.907 240.567ZM157.907 239.391C158.323 239.391 158.651 239.283 158.891 239.067C159.131 238.851 159.307 238.491 159.419 237.987C159.539 237.475 159.599 236.771 159.599 235.875C159.599 234.979 159.539 234.279 159.419 233.775C159.307 233.263 159.131 232.899 158.891 232.683C158.651 232.467 158.323 232.359 157.907 232.359C157.491 232.359 157.163 232.467 156.923 232.683C156.683 232.899 156.503 233.263 156.383 233.775C156.271 234.279 156.215 234.979 156.215 235.875C156.215 236.771 156.271 237.475 156.383 237.987C156.503 238.491 156.683 238.851 156.923 239.067C157.163 239.283 157.491 239.391 157.907 239.391ZM165.301 240.567C164.293 240.567 163.549 240.195 163.069 239.451C162.597 238.699 162.361 237.483 162.361 235.803C162.361 234.187 162.597 233.015 163.069 232.287C163.549 231.551 164.293 231.183 165.301 231.183C166.309 231.183 167.049 231.551 167.521 232.287C168.001 233.015 168.241 234.187 168.241 235.803C168.241 237.483 168.001 238.699 167.521 239.451C167.049 240.195 166.309 240.567 165.301 240.567ZM165.301 239.391C165.717 239.391 166.045 239.283 166.285 239.067C166.525 238.851 166.701 238.491 166.813 237.987C166.933 237.475 166.993 236.771 166.993 235.875C166.993 234.979 166.933 234.279 166.813 233.775C166.701 233.263 166.525 232.899 166.285 232.683C166.045 232.467 165.717 232.359 165.301 232.359C164.885 232.359 164.557 232.467 164.317 232.683C164.077 232.899 163.897 233.263 163.777 233.775C163.665 234.279 163.609 234.979 163.609 235.875C163.609 236.771 163.665 237.475 163.777 237.987C163.897 238.491 164.077 238.851 164.317 239.067C164.557 239.283 164.885 239.391 165.301 239.391Z" fill="#759187"/>
<line x1="181" y1="235.875" x2="603" y2="235.875" stroke="#0F2A20"/>
<path d="M153.82 263.654L153.544 264.71C153.448 265.07 152.924 265.25 151.972 265.25H148.192V264.506L150.388 261.65C151.044 260.794 151.492 260.138 151.732 259.682C151.972 259.218 152.092 258.822 152.092 258.494C152.092 258.118 151.968 257.83 151.72 257.63C151.48 257.43 151.124 257.33 150.652 257.33C150.18 257.33 149.756 257.43 149.38 257.63C149.004 257.83 148.696 258.114 148.456 258.482L148.324 258.458L148.492 257.09C148.804 256.786 149.156 256.558 149.548 256.406C149.948 256.246 150.368 256.166 150.808 256.166C151.6 256.166 152.22 256.366 152.668 256.766C153.124 257.166 153.352 257.726 153.352 258.446C153.352 258.766 153.304 259.062 153.208 259.334C153.12 259.598 152.948 259.93 152.692 260.33C152.444 260.73 152.04 261.31 151.48 262.07L149.968 264.122H152.32C152.56 264.122 152.804 264.078 153.052 263.99C153.308 263.894 153.528 263.766 153.712 263.606L153.82 263.654ZM157.907 265.442C156.899 265.442 156.155 265.07 155.675 264.326C155.203 263.574 154.967 262.358 154.967 260.678C154.967 259.062 155.203 257.89 155.675 257.162C156.155 256.426 156.899 256.058 157.907 256.058C158.915 256.058 159.655 256.426 160.127 257.162C160.607 257.89 160.847 259.062 160.847 260.678C160.847 262.358 160.607 263.574 160.127 264.326C159.655 265.07 158.915 265.442 157.907 265.442ZM157.907 264.266C158.323 264.266 158.651 264.158 158.891 263.942C159.131 263.726 159.307 263.366 159.419 262.862C159.539 262.35 159.599 261.646 159.599 260.75C159.599 259.854 159.539 259.154 159.419 258.65C159.307 258.138 159.131 257.774 158.891 257.558C158.651 257.342 158.323 257.234 157.907 257.234C157.491 257.234 157.163 257.342 156.923 257.558C156.683 257.774 156.503 258.138 156.383 258.65C156.271 259.154 156.215 259.854 156.215 260.75C156.215 261.646 156.271 262.35 156.383 262.862C156.503 263.366 156.683 263.726 156.923 263.942C157.163 264.158 157.491 264.266 157.907 264.266ZM165.301 265.442C164.293 265.442 163.549 265.07 163.069 264.326C162.597 263.574 162.361 262.358 162.361 260.678C162.361 259.062 162.597 257.89 163.069 257.162C163.549 256.426 164.293 256.058 165.301 256.058C166.309 256.058 167.049 256.426 167.521 257.162C168.001 257.89 168.241 259.062 168.241 260.678C168.241 262.358 168.001 263.574 167.521 264.326C167.049 265.07 166.309 265.442 165.301 265.442ZM165.301 264.266C165.717 264.266 166.045 264.158 166.285 263.942C166.525 263.726 166.701 263.366 166.813 262.862C166.933 262.35 166.993 261.646 166.993 260.75C166.993 259.854 166.933 259.154 166.813 258.65C166.701 258.138 166.525 257.774 166.285 257.558C166.045 257.342 165.717 257.234 165.301 257.234C164.885 257.234 164.557 257.342 164.317 257.558C164.077 257.774 163.897 258.138 163.777 258.65C163.665 259.154 163.609 259.854 163.609 260.75C163.609 261.646 163.665 262.35 163.777 262.862C163.897 263.366 164.077 263.726 164.317 263.942C164.557 264.158 164.885 264.266 165.301 264.266Z" fill="#759187"/>
<line x1="181" y1="260.75" x2="603" y2="260.75" stroke="#0F2A20"/>
<path d="M149.88 283.405L152.136 281.125H152.976V288.325L153.06 290.125H151.692L151.776 288.325V283.081L149.904 284.773L149.724 284.689L149.88 283.405ZM157.907 290.317C156.899 290.317 156.155 289.945 155.675 289.201C155.203 288.449 154.967 287.233 154.967 285.553C154.967 283.937 155.203 282.765 155.675 282.037C156.155 281.301 156.899 280.933 157.907 280.933C158.915 280.933 159.655 281.301 160.127 282.037C160.607 282.765 160.847 283.937 160.847 285.553C160.847 287.233 160.607 288.449 160.127 289.201C159.655 289.945 158.915 290.317 157.907 290.317ZM157.907 289.141C158.323 289.141 158.651 289.033 158.891 288.817C159.131 288.601 159.307 288.241 159.419 287.737C159.539 287.225 159.599 286.521 159.599 285.625C159.599 284.729 159.539 284.029 159.419 283.525C159.307 283.013 159.131 282.649 158.891 282.433C158.651 282.217 158.323 282.109 157.907 282.109C157.491 282.109 157.163 282.217 156.923 282.433C156.683 282.649 156.503 283.013 156.383 283.525C156.271 284.029 156.215 284.729 156.215 285.625C156.215 286.521 156.271 287.225 156.383 287.737C156.503 288.241 156.683 288.601 156.923 288.817C157.163 289.033 157.491 289.141 157.907 289.141ZM165.301 290.317C164.293 290.317 163.549 289.945 163.069 289.201C162.597 288.449 162.361 287.233 162.361 285.553C162.361 283.937 162.597 282.765 163.069 282.037C163.549 281.301 164.293 280.933 165.301 280.933C166.309 280.933 167.049 281.301 167.521 282.037C168.001 282.765 168.241 283.937 168.241 285.553C168.241 287.233 168.001 288.449 167.521 289.201C167.049 289.945 166.309 290.317 165.301 290.317ZM165.301 289.141C165.717 289.141 166.045 289.033 166.285 288.817C166.525 288.601 166.701 288.241 166.813 287.737C166.933 287.225 166.993 286.521 166.993 285.625C166.993 284.729 166.933 284.029 166.813 283.525C166.701 283.013 166.525 282.649 166.285 282.433C166.045 282.217 165.717 282.109 165.301 282.109C164.885 282.109 164.557 282.217 164.317 282.433C164.077 282.649 163.897 283.013 163.777 283.525C163.665 284.029 163.609 284.729 163.609 285.625C163.609 286.521 163.665 287.225 163.777 287.737C163.897 288.241 164.077 288.601 164.317 288.817C164.557 289.033 164.885 289.141 165.301 289.141Z" fill="#759187"/>
<line x1="181" y1="285.625" x2="603" y2="285.625" stroke="#0F2A20"/>
<path d="M165.301 315.192C164.293 315.192 163.549 314.82 163.069 314.076C162.597 313.324 162.361 312.108 162.361 310.428C162.361 308.812 162.597 307.64 163.069 306.912C163.549 306.176 164.293 305.808 165.301 305.808C166.309 305.808 167.049 306.176 167.521 306.912C168.001 307.64 168.241 308.812 168.241 310.428C168.241 312.108 168.001 313.324 167.521 314.076C167.049 314.82 166.309 315.192 165.301 315.192ZM165.301 314.016C165.717 314.016 166.045 313.908 166.285 313.692C166.525 313.476 166.701 313.116 166.813 312.612C166.933 312.1 166.993 311.396 166.993 310.5C166.993 309.604 166.933 308.904 166.813 308.4C166.701 307.888 166.525 307.524 166.285 307.308C166.045 307.092 165.717 306.984 165.301 306.984C164.885 306.984 164.557 307.092 164.317 307.308C164.077 307.524 163.897 307.888 163.777 308.4C163.665 308.904 163.609 309.604 163.609 310.5C163.609 311.396 163.665 312.1 163.777 312.612C163.897 313.116 164.077 313.476 164.317 313.692C164.557 313.908 164.885 314.016 165.301 314.016Z" fill="#759187"/>
<line x1="181" y1="310.5" x2="603" y2="310.5" stroke="#29473C"/>
<path d="M207.902 243.65L260.502 226.638L313.101 279.758L365.7 197.474L418.299 170.394L470.899 232.367L523.498 282.535L576.097 166.575" stroke="#065136" stroke-width="2" stroke-linecap="round" stroke-linejoin="round"/>
<path d="M207.902 215.555L260.502 139.944L313.101 158.284L365.7 283.553L418.299 138.213L470.899 258.464L523.498 123.853L576.097 140.29" stroke="#19CC61" stroke-width="2" stroke-linecap="round" stroke-linejoin="round"/>
</g>
<path d="M149.784 75.952C149.784 73.8187 150.168 72.2507 150.936 71.248C151.715 70.2453 152.979 69.744 154.728 69.744C155.293 69.744 155.869 69.84 156.456 70.032C157.043 70.224 157.592 70.512 158.104 70.896L157.784 72.688L157.464 72.832C157.187 72.4907 156.792 72.2187 156.28 72.016C155.779 71.8027 155.261 71.696 154.728 71.696C154.035 71.696 153.48 71.84 153.064 72.128C152.648 72.416 152.344 72.8693 152.152 73.488C151.96 74.1067 151.864 74.928 151.864 75.952C151.864 77.0293 151.944 77.8827 152.104 78.512C152.275 79.1413 152.541 79.6 152.904 79.888C153.267 80.1653 153.757 80.304 154.376 80.304C155.176 80.304 155.763 80.0533 156.136 79.552C156.52 79.04 156.712 78.2453 156.712 77.168H154.088V75.264H158.616V82H157.528L157.16 80.688C156.883 81.1573 156.472 81.536 155.928 81.824C155.395 82.112 154.824 82.256 154.216 82.256C152.701 82.256 151.581 81.7493 150.856 80.736C150.141 79.7227 149.784 78.128 149.784 75.952ZM164.812 72.288C165.494 72.288 166.012 72.3627 166.364 72.512L166.044 74.208L165.836 74.352C165.697 74.256 165.5 74.1813 165.244 74.128C164.988 74.064 164.7 74.032 164.38 74.032C163.654 74.032 163.078 74.336 162.652 74.944V79.6L162.78 82H160.572L160.716 79.6V74.72L160.572 72.4H162.332L162.604 73.44C162.881 73.056 163.206 72.768 163.58 72.576C163.964 72.384 164.374 72.288 164.812 72.288ZM171.332 82.256C169.924 82.256 168.895 81.8347 168.244 80.992C167.594 80.1387 167.268 78.8693 167.268 77.184C167.268 75.4987 167.594 74.24 168.244 73.408C168.895 72.5653 169.924 72.144 171.332 72.144C172.74 72.144 173.77 72.5653 174.42 73.408C175.071 74.24 175.396 75.4987 175.396 77.184C175.396 78.8693 175.071 80.1387 174.42 80.992C173.77 81.8347 172.74 82.256 171.332 82.256ZM171.332 80.352C171.887 80.352 172.308 80.2613 172.596 80.08C172.895 79.888 173.103 79.568 173.22 79.12C173.338 78.672 173.396 78.032 173.396 77.2C173.396 76.368 173.338 75.728 173.22 75.28C173.103 74.832 172.895 74.5173 172.596 74.336C172.308 74.144 171.887 74.048 171.332 74.048C170.778 74.048 170.351 74.144 170.052 74.336C169.764 74.5173 169.562 74.832 169.444 75.28C169.327 75.728 169.268 76.368 169.268 77.2C169.268 78.032 169.327 78.672 169.444 79.12C169.562 79.568 169.764 79.888 170.052 80.08C170.351 80.2613 170.778 80.352 171.332 80.352ZM189.537 72.4L188.801 74.72L187.297 82H184.225L182.865 74.576L181.505 82H178.385L176.897 74.72L176.145 72.4H178.545L179.921 80.752L181.185 74.72L181.585 72.4H184.113L184.497 74.72L185.761 80.752L187.137 72.4H189.537ZM190.471 72.96L191.495 72.4L191.975 70.4H193.431V72.4H196.055V74.24H193.431V78.976C193.431 79.84 193.777 80.272 194.471 80.272C194.812 80.272 195.137 80.2027 195.447 80.064C195.756 79.9147 196.001 79.728 196.183 79.504L196.455 79.648L196.039 81.328C195.665 81.648 195.324 81.872 195.015 82C194.716 82.128 194.369 82.192 193.975 82.192C193.1 82.192 192.465 81.92 192.071 81.376C191.687 80.832 191.495 79.904 191.495 78.592V74.24H190.471V72.96ZM203.212 79.6V75.44C203.212 74.992 203.105 74.6507 202.892 74.416C202.679 74.1813 202.364 74.064 201.948 74.064C201.596 74.064 201.239 74.16 200.876 74.352C200.513 74.544 200.209 74.832 199.964 75.216V79.6L200.092 82H197.884L198.028 79.6V71.52L197.884 69.2H200.092L199.964 71.52V73.616C200.252 73.1787 200.631 72.848 201.1 72.624C201.58 72.4 202.119 72.288 202.716 72.288C203.473 72.288 204.065 72.5227 204.492 72.992C204.929 73.4613 205.148 74.144 205.148 75.04V79.6L205.276 82H203.084L203.212 79.6Z" fill="white"/>
</g>
<defs>
<filter id="filter0_i_2538_15347" x="181" y="103" width="52.75" height="215" filterUnits="userSpaceOnUse" color-interpolation-filters="sRGB">
<feFlood flood-opacity="0" result="BackgroundImageFix"/>
<feBlend mode="normal" in="SourceGraphic" in2="BackgroundImageFix" result="shape"/>
<feColorMatrix in="SourceAlpha" type="matrix" values="0 0 0 0 0 0 0 0 0 0 0 0 0 0 0 0 0 0 127 0" result="hardAlpha"/>
<feOffset dx="1"/>
<feComposite in2="hardAlpha" operator="arithmetic" k2="-1" k3="1"/>
<feColorMatrix type="matrix" values="0 0 0 0 0.160784 0 0 0 0 0.278431 0 0 0 0 0.235294 0 0 0 1 0"/>
<feBlend mode="normal" in2="shape" result="effect1_innerShadow_2538_15347"/>
</filter>
<linearGradient id="paint0_linear_2538_15347" x1="387.554" y1="-5.69572e-06" x2="387.554" y2="388" gradientUnits="userSpaceOnUse">
<stop stop-color="#1F382F"/>
<stop offset="1" stop-color="#1F382F" stop-opacity="0"/>
</linearGradient>
<linearGradient id="paint1_linear_2538_15347" x1="336.006" y1="52" x2="336.006" y2="356" gradientUnits="userSpaceOnUse">
<stop stop-color="#002417"/>
<stop offset="1" stop-color="#001B11"/>
</linearGradient>
<clipPath id="clip0_2538_15347">
<rect width="752" height="388" fill="white"/>
</clipPath>
<clipPath id="clip1_2538_15347">
<rect width="467" height="237" fill="white" transform="translate(136 103)"/>
</clipPath>
</defs>
</svg>
