<svg width="736" height="394" viewBox="0 0 736 394" fill="none" xmlns="http://www.w3.org/2000/svg">
<g clip-path="url(#clip0_2588_6090)">
<g opacity="0.16">
<rect x="77" y="-161" width="1" height="623" fill="white"/>
<rect x="174" y="-161" width="1" height="623" fill="white"/>
<rect x="271" y="-161" width="1" height="623" fill="white"/>
<rect x="368" y="-161" width="1" height="623" fill="white"/>
<rect x="465" y="-161" width="1" height="623" fill="white"/>
<rect x="562" y="-161" width="1" height="623" fill="white"/>
<rect x="659" y="-161" width="1" height="623" fill="white"/>
<rect x="-592" y="102" width="1920" height="1" fill="#D9D9D9"/>
<rect x="-592" y="199" width="1920" height="1" fill="#D9D9D9"/>
<rect x="-592" y="296" width="1920" height="1" fill="#D9D9D9"/>
<rect x="-592" y="393" width="1920" height="1" fill="#D9D9D9"/>
</g>
<rect width="736" height="394" fill="url(#paint0_radial_2588_6090)"/>
<rect width="736" height="394" fill="url(#paint1_linear_2588_6090)"/>
<path d="M352.71 123.815C381.508 123.195 412.344 129.756 432.5 151.961C440.87 161.182 446.307 172.538 448.038 184.902C449.687 196.675 448.08 208.911 443.563 219.893C438.992 231.007 431.277 240.734 421.195 247.287C411.059 253.871 399.018 257.26 386.976 257.435C374.938 257.606 362.804 254.564 352.543 248.167C340.82 240.863 332.116 229.48 325.802 217.333C318.887 204.026 314.358 189.176 314.075 174.1C313.815 160.142 317.529 146.41 325.208 134.738C332.644 123.445 343.47 114.539 356.179 109.9C369.339 105.096 383.961 104.734 397.217 109.366C410.105 113.869 421.133 122.557 430.373 132.463C440.098 142.892 449.361 155.299 452.865 169.386C453.847 173.328 454.181 177.458 453.028 181.404C452.05 184.746 450.153 187.75 447.894 190.368C443.404 195.572 437.591 199.725 431.723 203.223C419.694 210.395 405.696 214.828 391.668 215.206C378.955 215.549 365.256 212.253 356.443 202.456C348.573 193.702 346.33 181.108 348.453 169.756C350.739 157.532 357.949 147.212 368.174 140.297C378.803 133.11 391.73 129.752 404.462 129.526C432.1 129.039 460.071 143.172 472.563 168.556C478.628 180.878 480.46 194.887 477.371 208.303C474.348 221.432 467.212 233.259 458.624 243.469C454.324 248.584 449.621 253.352 444.673 257.836C439.329 262.675 433.644 267.47 426.977 270.357C420.586 273.127 413.485 273.473 407.279 270.022C401.668 266.898 397.555 261.611 394.229 256.223C390.469 250.131 386.503 243.13 386.021 235.838C385.595 229.328 388.668 223.516 393.934 219.799C398.866 216.317 404.951 214.817 410.931 215.421C418.052 216.137 424.661 219.433 430.439 223.527C436.163 227.583 441.704 232.515 445.736 238.307C449.621 243.886 451.666 250.322 451.317 257.143C450.595 271.148 441.421 282.893 430.354 290.645C424.521 294.732 418.141 297.957 411.657 300.852C404.699 303.957 397.617 306.851 390.399 309.282C376.293 314.035 361.135 316.777 346.389 313.517C339.547 312.005 332.969 309.227 327.362 304.973C321.836 300.782 317.424 295.281 313.799 289.399C310.031 283.29 306.57 276.574 304.249 269.769C303.027 266.181 302.332 262.379 303.116 258.611C303.822 255.215 305.534 252.125 307.594 249.371C311.731 243.843 317.261 238.981 323.101 235.351C328.891 231.751 335.585 229.316 342.477 229.663C354.181 230.251 364.267 239.753 367.379 250.801C370.949 263.489 363.824 275.624 353.665 282.866C341.499 291.537 325.705 293.735 311.242 295.468C303.554 296.391 295.642 296.82 288.024 295.133C281.008 293.579 274.652 290.104 269.095 285.581C263.848 281.311 259.28 276.274 254.988 271.058C250.347 265.421 245.912 259.492 242.745 252.873C239.707 246.519 238.019 239.437 239.062 232.386C239.998 226.083 242.935 220.267 246.843 215.3C250.813 210.255 255.699 205.962 260.883 202.214C266.44 198.194 272.412 194.575 278.606 191.63C285.129 188.529 292.246 186.39 299.526 186.897C305.999 187.345 312.759 189.967 316.737 195.335C320.35 200.208 321.778 207.228 319.011 212.834C316.45 218.031 311.013 220.645 305.456 221.12C293.325 222.152 281.427 215.331 273.266 206.807C264.446 197.594 259.203 184.879 261.368 172.035C262.61 164.68 265.85 157.835 269.824 151.591C273.437 145.907 277.655 140.613 282.382 135.825C291.598 126.499 302.941 118.875 315.654 115.381C321.929 113.655 328.472 113.008 334.952 113.651C342.415 114.395 349.563 116.923 356.467 119.748C370.192 125.365 384.489 132.798 399.794 130.796C411.304 129.292 423.05 120.441 423.803 108.045C424.16 102.179 421.498 96.6272 417.381 92.5797C412.619 87.901 406.305 85.4195 399.782 84.5196C392.684 83.5418 385.346 84.1573 378.303 85.2987C371.213 86.4479 364.115 88.5477 358.031 92.4784C348.007 98.9529 340.603 111.353 344.93 123.402C346.753 128.478 350.401 133.012 355.423 135.147C362.35 138.096 370.406 135.829 377.383 134.201C385.02 132.42 392.549 130.188 399.922 127.512C407.186 124.874 414.199 121.559 421.537 119.125C428.584 116.787 436.089 115.392 443.455 116.99C449.574 118.314 455.155 121.458 459.858 125.552C469.583 134.021 475.788 146.012 479.114 158.357C485.974 183.8 480.701 213.321 463.614 233.687C459.311 238.818 454.037 243.438 447.727 245.861C441.243 248.35 434.246 248.144 427.695 246.001C420.745 243.726 414.47 239.57 408.956 234.821C403.752 230.341 398.886 225.249 395.09 219.499C391.233 213.66 388.544 206.967 388.555 199.881C388.563 192.507 391.315 185.444 394.978 179.16C398.401 173.285 402.665 166.858 408.634 163.332C414.99 159.577 422.86 160.777 429.015 164.376C438.829 170.111 444.77 182.086 443.381 193.406C441.937 205.167 432.146 214.353 420.935 216.979C415.215 218.319 409.27 217.82 403.876 215.475C398.203 213.005 393.484 208.81 389.658 203.991C381.454 193.652 377.585 180.952 372.792 168.852C367.953 156.647 361.737 144.847 350.475 137.485C339.667 130.418 325.922 127.535 313.14 127.679C303.717 127.784 291.055 130.613 287.578 140.749C285.614 146.472 287.683 152.654 291.614 157.01C296.053 161.922 302.635 164.041 309.061 164.548C321.96 165.56 335.31 161.248 345.857 153.905C356.067 146.795 365.163 136.035 366.863 123.305C367.662 117.313 366.444 111.17 362.513 106.464C358.252 101.364 351.717 98.7075 345.574 96.6973C331.638 92.1356 316.027 91.15 301.758 94.7768C289.483 97.8972 277.632 105.895 275.292 119.206C274.298 124.859 275.335 130.792 278.874 135.389C281.994 139.44 286.666 142.015 291.594 143.129C301.936 145.467 314.42 141.976 319.531 132.007C321.902 127.383 321.933 121.707 317.622 118.221C315.06 116.144 311.723 115.287 308.564 114.621C304.905 113.85 301.164 113.441 297.423 113.367C283.263 113.086 268.683 117.192 256.257 123.912C245.756 129.592 235.946 138.03 231.724 149.534C227.362 161.415 230.389 174.692 237.84 184.637C245.892 195.389 258.481 201.389 271.566 203.153C278.043 204.026 284.695 203.967 291.144 202.884C297.213 201.868 303.287 199.764 308.052 195.744C312.228 192.222 314.804 187.376 315.138 181.887C315.429 177.103 313.912 171.938 310.132 168.802C305.545 164.992 299.356 165.245 294.152 167.547C288.261 170.153 283.666 174.848 279.863 179.947C271.605 191.022 266.906 204.743 266.611 218.576C266.456 225.822 267.488 233.228 270.534 239.85C273.344 245.955 277.962 250.964 283.22 255.039C294.509 263.793 308.665 269.457 322.837 271.011C329.101 271.697 336.218 271.3 341.313 267.131C345.143 263.995 347.312 258.366 346.036 253.493C344.561 247.871 338.849 245.643 333.544 246.66C327.35 247.844 322.158 251.985 317.416 255.908C307.676 263.964 298.087 274.389 296.228 287.435C294.71 298.082 298.343 310.423 308.297 315.78C314.42 319.076 321.623 319.266 328.398 318.826C336.287 318.316 344.122 316.882 351.682 314.557C363.848 310.817 378.144 304.214 380.771 290.264C381.318 287.353 381.303 284.319 380.495 281.455C379.843 279.149 378.485 275.725 375.982 274.895C373.588 274.101 370.937 276.298 369.393 277.93C367.783 279.632 366.638 281.736 365.959 283.976C364.546 288.623 365.058 293.805 366.952 298.238C369.211 303.536 373.669 307.385 378.838 309.73C384.535 312.313 390.876 313.166 397.081 313.115C404.346 313.057 411.665 311.888 418.669 309.991C431.642 306.477 445.081 300.209 454.126 289.944C462.198 280.782 466.168 267.369 460.902 255.783C458.539 250.583 454.309 246.59 448.825 244.907C444.114 243.461 438.565 243.886 434.886 247.466C430.575 251.658 430.377 258.576 432.973 263.73C435.779 269.301 441.623 272.753 447.44 274.362C459.066 277.575 471.597 273.898 480.953 266.633C491.244 258.639 497.007 246.516 498.501 233.687C499.304 226.784 498.893 219.753 497.527 212.947C496.262 206.663 494.232 200.376 490.973 194.836C487.895 189.608 483.557 185.062 477.856 182.783C471.166 180.111 463.719 180.948 456.889 182.604C453.397 183.449 449.896 184.446 446.524 185.697C443.563 186.792 440.684 188.198 438.336 190.352C433.963 194.365 432.41 200.454 432.783 206.235C433.524 217.731 441.518 230.251 453.21 232.951C466.49 236.021 476.917 224.19 483.731 214.435C491.085 203.913 497.418 189.674 491.287 177.095C488.493 171.369 483.545 167.099 478.396 163.55C472.423 159.433 466.067 155.79 459.726 152.284C446.804 145.136 433.179 138.945 418.778 135.513C411.812 133.854 404.672 132.857 397.508 132.736C390.379 132.615 383.076 133.254 376.3 135.611C362.854 140.289 354.709 152.124 348.83 164.513C342.333 178.21 338.395 192.908 333.257 207.131C329.438 217.696 323.384 234.182 309.624 233.816C303.473 233.652 298.044 229.496 294.835 224.451C291.42 219.079 290.558 212.822 292.18 206.679C295.591 193.769 307.59 184.559 319.531 180.029C332.434 175.132 347.382 174.75 360.041 180.644C371.294 185.884 380.03 196.203 383.39 208.194C385.063 214.151 385.338 220.473 383.922 226.511C382.42 232.916 379.211 238.833 374.973 243.824C365.64 254.817 352.043 260.711 338.138 263.314C331.766 264.506 325.127 265.328 318.65 264.599C312.779 263.937 306.62 261.685 303.403 256.391C299.992 250.777 300.982 243.22 304.835 238.085C308.933 232.632 315.903 229.858 322.569 229.737C334.712 229.519 345.721 238.097 350.397 249.036C355.434 260.813 352.047 274.385 343.909 283.875C335.247 293.976 322.181 298.378 309.123 296.8C295.999 295.215 282.743 287.704 276.223 275.889C272.762 269.613 272.032 262.581 273.581 255.62C275.16 248.506 278.49 241.954 281.373 235.316C286.841 222.741 290.729 207.174 282.925 194.637C276.821 184.836 264.345 179.312 253.72 185.354C244.158 190.792 239.516 202.682 238.341 213.134C237.685 218.985 237.84 225.767 241.488 230.692C245.295 235.826 252.055 237.069 258.054 237.291C270.03 237.731 282.001 233.154 290.973 225.253C299.895 217.396 309.014 203.064 301.878 191.338C298.486 185.763 292.863 181.384 287.675 177.586C282.106 173.508 275.874 170.044 269.095 168.541C265.707 167.789 262.23 167.559 258.772 167.906C255.016 168.283 251.341 169.195 247.596 169.627C241.856 170.29 234.103 169.39 231.332 163.402C228.27 156.784 234.479 150.099 239.648 146.854C245.547 143.153 253.518 140.839 260.142 144.014C264.74 146.219 267.791 151.649 267.24 156.752C266.937 159.526 265.257 162.495 262.517 163.465C259.397 164.571 257.169 161.743 256.226 159.113C254.309 153.784 255.59 147.15 257.429 141.968C259.482 136.191 262.979 130.987 267.201 126.581C275.618 117.792 287.054 111.668 299.026 109.588C309.911 107.695 322.814 108.879 331.227 116.799C339.438 124.532 340.362 137.025 334.793 146.596C332.085 151.252 327.548 155.564 322.139 156.674C319.182 157.282 315.383 156.651 314.579 153.2C313.854 150.091 316.139 146.822 318.165 144.719C322.752 139.958 329.132 136.518 335.259 134.228C341.433 131.922 347.972 130.667 354.546 130.375C368.442 129.752 382.09 133.577 394.361 139.978C400.741 143.309 406.779 147.298 412.456 151.723C417.804 155.895 423.221 160.368 427.474 165.693C431.883 171.217 434.541 178.011 432.542 185.07C430.711 191.556 425.93 196.854 420.997 201.217C415.914 205.713 409.612 209.827 402.766 206.562C397.341 203.971 393.453 198.038 393.208 192.012C392.944 185.522 396.239 179.406 400.675 174.89C402.922 172.6 405.51 170.605 408.319 169.059C410.031 168.116 412.107 167.263 414.008 168.178C415.514 168.903 416.461 170.465 417.171 171.914C420.155 177.976 422.713 186.223 419.034 192.51C417.167 195.697 414.086 197.341 410.419 197.302C407.105 197.267 403.705 196.387 400.554 195.417C395.009 193.706 389.46 190.983 385.567 186.554C381.043 181.404 380.197 174.559 382.405 168.167C384.749 161.38 389.533 155.634 394.113 150.247C398.47 145.116 403.092 140.157 408.316 135.899C413.287 131.848 418.929 128.4 425.177 126.799C431.452 125.19 438.107 125.677 444.048 128.283C455.865 133.472 463.925 145.097 468.671 156.733C474.162 170.196 476.44 186.238 471.116 200.138C468.803 206.176 462.993 212.799 455.787 210.384C449.974 208.436 449.326 200.621 452.764 196.254C456.87 191.042 464.907 191.299 470.215 194.283C475.994 197.532 479.948 203.531 482.56 209.488C487.496 220.754 488.086 235.105 480.491 245.359C476.855 250.267 469.074 255.608 463.595 250.022C457.933 244.252 467.142 236.543 471.236 233.095C476.661 228.526 483.258 224.926 490.526 225.187C497.17 225.429 503.072 229.122 505.339 235.53C509.728 247.934 500.48 259.488 490.092 265.09C484.473 268.121 476.863 270.166 470.972 266.664C466.455 263.976 463.191 257.965 465.702 252.865C465.209 252.733 464.72 252.597 464.228 252.464C464.701 265.573 454.27 276.901 443.978 283.594C438.627 287.077 432.449 289.547 425.992 289.445C420.124 289.352 413.981 287.186 410.12 282.581C407.287 279.204 406.55 274.069 407.982 269.94C409.639 265.152 414.792 263.134 419.065 266.204C424.723 270.267 424.051 277.77 420.908 283.185C417.73 288.659 412.511 293.174 406.725 295.675C401.047 298.125 394.605 298.402 388.912 295.854C383.771 293.555 379.618 289.406 376.716 284.619C369.44 272.616 371.209 258.054 374.966 245.175C379.029 231.241 385.614 217.964 387.201 203.383C388.323 193.099 386.351 180.761 377.694 174.037C368.691 167.041 354.79 169.881 349.528 180.118C347.056 184.93 346.571 190.769 348.558 195.837C350.335 200.376 353.777 203.956 357.941 206.391C366.801 211.572 378.481 212.366 388.152 209.215C392.816 207.696 397.419 205.195 400.566 201.338C403.88 197.275 405.005 192.043 403.608 186.963C400.5 175.662 388.68 169.039 377.612 168.486C365.574 167.882 354.208 174.318 346.327 183.083C339.446 190.734 334.704 201.494 336.404 211.961C337.195 216.854 339.706 221.315 343.692 224.287C348.143 227.61 353.894 228.615 359.327 228.085C371.104 226.936 381.225 219.285 388.598 210.411C392.49 205.724 395.801 200.578 398.723 195.233C401.916 189.39 404.815 183.293 406.794 176.92C408.793 170.481 409.763 163.652 408.653 156.947C407.784 151.704 405.502 146.807 402.235 142.642C395.645 134.243 385.335 128.984 374.791 127.983C363.483 126.908 352.14 131.104 343.164 137.843C338.461 141.372 334.316 145.591 330.796 150.309C327.672 154.501 324.114 159.666 324.32 165.155C324.409 167.543 325.402 169.779 327.358 171.201C329.57 172.81 332.457 173.021 335.096 172.923C341.185 172.697 347.328 171.708 353.269 170.383C365.512 167.656 377.329 162.935 388.113 156.507C398.645 150.231 408.89 142.218 416.574 132.572C420.345 127.835 423.306 122.198 422.957 115.965C422.631 110.161 419.662 104.96 415.898 100.683C411.851 96.0857 406.845 92.4355 401.684 89.2022C396.297 85.8285 390.612 82.938 384.698 80.624C372.979 76.0388 360.149 73.7832 347.623 75.6648C323.613 79.2683 304.951 98.9179 298.886 121.968C293.306 143.176 297.423 167.13 310.796 184.633C324.075 202.016 345.71 211.56 367.29 211.981C378.128 212.191 389.021 210.095 398.905 205.588C401.284 204.505 403.725 203.399 405.599 201.525C407.093 200.033 408.603 197.859 408.281 195.627C407.935 193.219 405.525 192.097 403.31 192.339C400.628 192.631 397.95 194.15 395.645 195.475C386.033 200.991 378.734 210.255 375.16 220.734C371.547 231.33 371.489 244.673 378.225 254.093C385.044 263.625 398.509 266.142 409.522 265.838C420.202 265.542 430.765 262.25 439.842 256.621C448.705 251.124 456.152 243.36 460.902 234.026C461.364 233.118 460.002 232.316 459.536 233.224C449.955 252.059 429.31 264.128 408.37 264.272C397.066 264.35 383.612 261.338 377.884 250.524C372.575 240.501 373.611 227.739 378.062 217.614C382.455 207.629 390.476 199.078 400.55 194.785C401.8 194.252 403.306 193.667 404.687 193.928C406.302 194.228 407.023 195.623 406.604 197.135C405.894 199.678 403.484 201.521 401.264 202.678C396.604 205.113 391.656 206.959 386.561 208.241C366.149 213.379 343.49 209.343 326.217 197.236C308.463 184.789 298.533 163.987 298.071 142.448C297.586 120.048 307.598 97.7803 326.598 85.3766C336.947 78.6216 349.109 75.8635 361.368 76.7517C373.743 77.6516 385.773 81.9407 396.55 87.9984C401.8 90.9474 406.938 94.2782 411.393 98.3647C415.677 102.295 419.573 107.142 420.931 112.927C422.398 119.175 420.105 125.139 416.442 130.157C412.875 135.042 408.335 139.331 403.779 143.274C385.498 159.09 362.16 169.07 338.1 171.131C335.356 171.365 332.318 171.723 329.686 170.683C326.896 169.581 325.721 166.912 325.922 164.041C326.306 158.556 330.257 153.387 333.587 149.281C340.735 140.457 350.432 133.433 361.515 130.652C371.943 128.034 382.932 129.771 392.017 135.564C401.532 141.626 407.636 151.61 407.555 163.052C407.508 169.822 405.587 176.46 403.034 182.678C400.667 188.439 397.772 194.038 394.52 199.347C388.416 209.328 380.383 218.615 369.626 223.633C360.017 228.117 346.218 228.385 340.199 218.07C334.98 209.125 338.317 197.212 343.614 189.117C349.92 179.487 360.654 171.766 372.168 170.278C383.123 168.864 395.463 173.64 400.69 183.839C403.36 189.043 403.337 195.109 399.747 199.842C396.728 203.823 392.044 206.332 387.372 207.805C377.926 210.777 366.444 209.916 357.972 204.56C353.731 201.879 350.397 197.816 349.291 192.838C348.073 187.36 349.714 181.256 353.513 177.138C357.421 172.908 363.502 170.995 369.145 171.945C374.484 172.841 378.866 176.324 381.625 180.905C387.845 191.244 386.301 204.139 383.262 215.23C379.576 228.693 373.312 241.389 370.976 255.226C368.997 266.952 370.185 279.239 377.713 288.834C380.81 292.78 384.826 296.017 389.526 297.813C394.586 299.745 400.197 299.656 405.296 297.915C410.768 296.045 415.658 292.488 419.368 288.066C422.949 283.801 425.887 278.086 424.731 272.344C423.795 267.704 419.86 263.325 414.951 263.103C411.044 262.928 407.947 265.581 406.596 269.106C405.165 272.838 405.471 277.26 407.159 280.856C409.259 285.328 413.908 288.335 418.463 289.808C429.861 293.493 441.398 288.246 450.125 280.98C458.558 273.96 466.222 264.003 465.803 252.46C465.776 251.724 464.697 251.315 464.328 252.059C461.825 257.147 464.053 263.111 468.194 266.609C473.277 270.906 480.406 270.665 486.355 268.495C498.039 264.237 509.429 252.881 507.853 239.511C507.147 233.508 503.825 227.968 498.245 225.382C492.471 222.705 485.73 223.204 479.979 225.658C476.793 227.018 473.886 228.915 471.185 231.073C468.337 233.348 465.489 235.896 463.234 238.775C461.375 241.155 459.87 244.089 460.409 247.201C460.882 249.92 462.916 252.024 465.388 253.091C471.449 255.717 477.55 251.607 481.232 246.94C484.923 242.262 486.964 236.554 487.589 230.649C488.256 224.346 487.317 217.867 485.202 211.915C483.087 205.962 479.777 200.052 475.035 195.814C470.452 191.72 464.212 189.445 458.119 191.081C452.733 192.526 448.918 197.166 449.062 202.842C449.202 208.416 453.439 212.643 459.074 212.374C465.795 212.055 470.254 206.617 472.551 200.75C477.969 186.905 475.869 170.718 470.553 157.2C465.954 145.51 458.325 133.932 446.982 127.929C441.584 125.073 435.472 123.764 429.383 124.411C423.031 125.089 417.097 127.726 411.835 131.279C406.34 134.991 401.501 139.616 397.031 144.497C392.285 149.682 387.504 155.144 383.926 161.229C380.558 166.955 378.373 173.714 380.321 180.321C381.951 185.849 386.146 190.076 390.989 192.958C396.107 196.005 402.103 197.921 407.993 198.681C411.269 199.102 414.653 198.825 417.365 196.764C419.651 195.027 421.164 192.405 421.894 189.651C422.794 186.266 422.429 182.693 421.552 179.343C420.702 176.102 419.569 172.545 417.757 169.698C416.197 167.243 413.779 165.712 410.811 166.332C407.765 166.967 404.87 169.168 402.491 171.084C397.628 175.003 393.6 180.376 392.172 186.554C390.822 192.394 392.141 198.311 395.89 202.99C399.503 207.497 405.254 210.349 411.048 209.02C414.292 208.276 417.128 206.406 419.701 204.353C422.36 202.23 424.878 199.885 427.133 197.333C431.409 192.479 434.906 186.468 434.836 179.803C434.766 173.149 431.149 167.29 426.834 162.498C422.107 157.247 416.473 152.693 410.819 148.49C405.114 144.251 399.068 140.457 392.681 137.344C380.294 131.306 366.614 127.905 352.799 128.871C346.105 129.339 339.454 130.769 333.229 133.308C327.424 135.681 321.44 139.016 317.043 143.577C315.057 145.642 313.264 148.287 312.926 151.205C312.616 153.916 313.939 156.526 316.419 157.719C321.328 160.071 327.315 156.9 331.014 153.671C338.93 146.76 342.139 134.52 338.402 124.641C334.335 113.893 323.315 108.501 312.495 107.442C300.566 106.273 288.432 109.635 278.229 115.79C267.992 121.964 259.017 131.349 255.419 142.989C253.82 148.17 252.819 154.653 254.829 159.857C255.664 162.019 257.103 164.216 259.397 164.999C262.16 165.942 264.954 164.376 266.665 162.234C269.75 158.369 269.32 152.88 267.096 148.712C264.271 143.406 258.729 140.827 252.854 140.944C246.339 141.072 239.648 144.096 234.875 148.49C230.521 152.498 227.071 158.887 230.218 164.668C232.931 169.655 239.218 171.544 244.538 171.423C248.384 171.334 252.152 170.457 255.935 169.857C259.746 169.253 263.549 169.102 267.36 169.791C274.527 171.084 281.058 174.676 286.883 178.942C289.786 181.069 292.572 183.383 295.192 185.853C297.714 188.229 300.089 190.87 301.552 194.053C304.816 201.155 301.602 209.153 297.613 215.238C294.167 220.497 289.538 224.953 284.256 228.335C278.905 231.763 272.882 234.112 266.615 235.148C260.417 236.173 252.842 236.286 247.111 233.36C240.607 230.037 239.346 222.53 239.699 215.861C240.009 209.939 241.465 203.987 244.076 198.662C246.579 193.558 250.274 188.81 255.431 186.223C260.937 183.461 267.356 183.874 272.684 186.858C278.451 190.083 282.657 195.701 284.477 202.031C286.654 209.604 285.785 217.719 283.542 225.168C279.436 238.806 269.366 251.732 271.45 266.668C273.286 279.819 284.4 290.014 296.092 294.927C308.172 300.007 322.6 300.229 334.238 293.801C344.957 287.883 352.807 276.687 354.185 264.428C355.539 252.394 349.679 240.544 339.869 233.66C329.923 226.683 315.542 225.83 306.135 234.322C301.525 238.487 299.072 244.805 299.899 251.007C300.683 256.89 304.614 261.568 309.946 263.945C315.336 266.344 321.475 266.695 327.284 266.305C334.425 265.826 341.612 264.529 348.442 262.386C361.465 258.308 373.522 250.501 380.655 238.58C387.197 227.649 388.082 214.626 383.204 202.869C378.423 191.346 368.989 182.148 357.332 177.793C344.375 172.954 329.636 173.983 317.001 179.324C305.471 184.197 294.26 193.321 290.752 205.845C289.08 211.825 289.565 218.011 292.467 223.524C295.114 228.549 299.581 232.842 305.037 234.595C310.582 236.379 316.423 234.91 320.936 231.354C325.748 227.559 328.899 221.961 331.312 216.418C337.397 202.444 341.01 187.508 346.672 173.363C351.988 160.083 359.276 145.295 372.746 138.755C379.502 135.474 387.139 134.427 394.574 134.302C402.254 134.173 409.918 135.089 417.4 136.803C432.344 140.227 446.431 146.667 459.78 154.115C466.071 157.625 472.412 161.24 478.303 165.401C483.988 169.417 489.269 174.501 491.256 181.396C493.227 188.237 491.76 195.491 489.013 201.899C486.161 208.553 481.981 214.708 477.282 220.181C472.943 225.234 467.58 230.127 460.867 231.494C454.297 232.83 447.906 230.006 443.253 225.421C438.654 220.894 435.557 214.825 434.591 208.432C433.644 202.172 434.906 195.257 439.943 191.018C442.799 188.615 446.396 187.31 449.908 186.207C453.439 185.097 457.017 184.076 460.661 183.391C467.922 182.027 475.59 182.288 481.803 186.722C487.275 190.625 490.79 196.85 493.095 203.048C495.54 209.616 496.945 216.624 497.259 223.625C497.88 237.489 493.938 251.934 483.926 261.896C475.051 270.727 461.88 275.967 449.404 273.201C442.884 271.755 435.899 267.93 433.617 261.218C431.584 255.23 433.749 247.992 440.265 246.149C445.767 244.591 452.124 246.999 455.946 251.077C460.378 255.807 462.016 262.643 461.62 268.986C460.739 283.173 450.005 293.754 438.286 300.33C425.32 307.607 409.825 311.915 394.916 311.495C388.342 311.308 381.578 309.991 375.982 306.36C371.05 303.162 367.779 298.285 366.929 292.426C366.207 287.443 367.328 281.865 371.17 278.374C372.098 277.533 373.697 276.189 375.024 276.29C376.925 276.43 378.105 279.371 378.644 280.891C379.762 284.011 379.793 287.439 379.06 290.649C375.637 305.569 358.283 311.518 345.197 314.666C337.572 316.501 329.558 317.638 321.7 317.365C314.773 317.124 307.924 315.141 303.298 309.687C295.153 300.084 296.27 285.768 302.138 275.386C305.545 269.356 310.303 264.217 315.449 259.644C320.451 255.199 325.996 250.314 332.578 248.498C335.705 247.634 339.171 247.641 341.825 249.753C344.041 251.514 344.941 254.276 344.778 257.042C344.382 263.711 338.965 267.98 332.807 269.204C325.604 270.637 317.75 268.954 310.803 266.999C303.492 264.938 296.488 261.849 290.034 257.836C283.907 254.026 278.09 249.32 274.151 243.177C270.003 236.71 268.361 228.997 268.183 221.385C267.837 206.874 272.556 192.343 281.218 180.734C285.335 175.218 290.667 169.935 297.45 168.003C303.302 166.34 309.527 168.381 312.197 174.092C314.513 179.051 313.873 185.335 311.048 189.947C307.641 195.51 301.358 198.708 295.265 200.352C288.556 202.168 281.381 202.499 274.481 201.883C267.422 201.252 260.402 199.421 254.08 196.18C242.113 190.044 232.869 178.326 231.425 164.68C230.017 151.4 237.099 139.736 247.177 131.719C258.167 122.977 272.315 117.675 286.103 115.665C293.896 114.532 301.928 114.621 309.604 116.468C312.969 117.278 316.679 118.478 318.545 121.649C320.008 124.134 319.806 127.099 318.813 129.717C314.502 141.084 299.848 144.454 289.324 140.823C284.078 139.012 279.557 135.202 277.612 129.892C275.327 123.655 276.697 116.592 280.022 110.998C287.539 98.3569 303.865 94.6677 317.478 94.2431C325.325 94.0016 333.191 94.9015 340.777 96.9194C347.634 98.7426 355.26 101.232 360.355 106.44C370.514 116.822 364.022 133.145 355.982 142.596C347.246 152.861 334.918 159.873 321.685 162.234C314.676 163.484 306.985 163.659 300.268 160.999C293.989 158.513 288.513 152.693 288.381 145.611C288.141 132.97 303.597 129.284 313.485 129.249C326.877 129.199 341.305 132.405 352.163 140.593C363.479 149.129 368.819 162.658 373.662 175.514C378.163 187.458 382.866 199.784 392.001 209.028C396.227 213.305 401.385 216.698 407.198 218.319C412.639 219.838 418.494 219.538 423.85 217.797C434.552 214.318 443.42 205.179 444.91 193.757C446.365 182.588 441.037 170.905 431.956 164.388C426.776 160.668 419.988 158.533 413.636 159.721C406.888 160.983 401.936 166.273 398.047 171.591C393.806 177.391 390.115 183.819 388.229 190.804C386.378 197.657 386.627 204.786 389.138 211.432C391.52 217.739 395.486 223.309 399.984 228.268C404.792 233.574 410.236 238.417 416.294 242.238C422.053 245.873 428.526 248.611 435.36 249.176C442.1 249.733 448.709 247.863 454.363 244.19C465.264 237.104 472.769 224.934 477.472 213.036C482.358 200.683 484.352 187.162 483.347 173.913C482.358 160.866 478.52 147.75 471.426 136.705C464.786 126.37 454.743 117.192 442.283 115.143C426.904 112.615 412.487 121.333 398.509 126.32C390.795 129.074 382.909 131.345 374.915 133.118C367.755 134.707 359.598 136.639 353.122 132.039C348.112 128.478 345.217 122.155 345.213 116.063C345.209 109.42 348.527 103.16 353.087 98.5088C358.259 93.2302 365.058 90.0358 372.125 88.1893C379.378 86.2921 387.147 85.4078 394.64 85.6571C401.882 85.8987 409.274 87.679 414.917 92.4628C419.825 96.6272 423.019 102.786 422.088 109.346C421.203 115.568 417.062 121.006 412.01 124.52C405.964 128.723 398.653 129.95 391.415 129.382C375.598 128.143 361.907 119.202 347.029 114.59C340.385 112.529 333.493 111.458 326.535 111.914C320.047 112.338 313.679 113.947 307.68 116.448C295.467 121.54 284.784 130.063 276.27 140.149C267.391 150.664 259.257 163.87 259.273 178.097C259.284 190.574 265.711 202.257 274.787 210.489C283.317 218.225 295.149 224.186 306.931 222.522C312.247 221.771 317.3 219.102 320.012 214.299C322.853 209.269 322.472 203.013 320.09 197.89C314.226 185.28 298.296 183.371 286.371 186.901C279.273 189 272.684 192.682 266.429 196.577C260.965 199.982 255.71 203.816 251.065 208.299C241.86 217.178 235.504 228.97 237.607 242.098C238.752 249.25 242.116 255.885 246.09 261.853C249.971 267.673 254.453 273.169 259.183 278.312C263.867 283.399 269.056 288.136 275.032 291.65C281.26 295.312 288.156 297.26 295.347 297.72C303.194 298.222 311.048 297.163 318.794 296.006C326.403 294.868 334.041 293.512 341.305 290.91C353.347 286.598 364.981 278.097 368.823 265.304C372.187 254.096 367.383 241.891 358.574 234.603C354.297 231.065 349.128 228.689 343.587 228.144C336.928 227.489 330.222 229.523 324.428 232.713C318.487 235.99 313.116 240.544 308.615 245.616C304.074 250.738 300.531 256.987 301.3 264.069C301.699 267.762 303.011 271.257 304.482 274.642C305.891 277.891 307.412 281.101 309.057 284.241C312.305 290.435 316.139 296.403 321.025 301.432C330.847 311.541 344.507 316.177 358.372 316.508C373.887 316.882 388.94 311.958 403.147 306.162C416.197 300.836 429.655 294.958 439.787 284.825C448.86 275.748 454.93 262.367 452.333 249.367C450.975 242.569 447.056 236.667 442.352 231.72C437.575 226.698 432.003 222.168 425.949 218.794C420.066 215.518 413.259 213.255 406.461 213.734C400.849 214.127 395.316 216.309 391.07 220.041C386.382 224.162 383.926 230.06 384.481 236.317C385.113 243.481 388.784 250.244 392.428 256.298C395.649 261.642 399.557 266.851 404.8 270.349C410.163 273.925 416.585 274.981 422.829 273.43C429.822 271.693 435.938 267.357 441.39 262.792C446.629 258.405 451.596 253.656 456.206 248.608C465.24 238.717 473.052 227.345 477.27 214.517C481.516 201.607 481.492 187.734 476.944 174.906C472.361 161.976 463.773 150.765 452.706 142.752C431.126 127.134 400.465 123.059 376.021 134.107C364.802 139.175 354.98 147.789 350.021 159.25C345.453 169.807 344.611 182.339 348.911 193.134C353.525 204.715 363.774 212.234 375.645 215.16C388.715 218.381 402.782 216.667 415.421 212.429C422.259 210.134 428.825 207.006 434.902 203.11C440.525 199.507 446.136 195.296 450.246 189.959C452.302 187.29 453.975 184.275 454.774 180.975C455.655 177.349 455.419 173.585 454.627 169.97C453.055 162.806 449.726 155.973 445.868 149.791C438.487 137.964 428.708 127.079 417.579 118.7C406.546 110.394 393.573 104.941 379.684 104.493C365.803 104.045 351.779 108.267 340.506 116.421C329.946 124.056 321.828 134.851 317.117 147.009C311.836 160.652 311.385 175.658 314.28 189.904C317.203 204.267 323.303 218.338 331.829 230.247C339.473 240.929 349.462 249.698 361.748 254.513C373.01 258.927 385.478 260.033 397.384 258.058C409.27 256.087 420.683 250.906 429.624 242.745C438.406 234.731 444.564 224.034 447.719 212.589C450.882 201.12 451.127 188.786 448.123 177.251C444.937 165.007 437.898 154.22 428.569 145.786C407.982 127.169 379.661 121.629 352.71 122.21C351.693 122.233 351.69 123.819 352.71 123.795V123.815Z" fill="#19CC61"/>
</g>
<defs>
<radialGradient id="paint0_radial_2588_6090" cx="0" cy="0" r="1" gradientUnits="userSpaceOnUse" gradientTransform="translate(368 197) scale(368 197)">
<stop stop-color="#1F382F"/>
<stop offset="1" stop-color="#1F382F" stop-opacity="0"/>
</radialGradient>
<linearGradient id="paint1_linear_2588_6090" x1="379.308" y1="-5.7838e-06" x2="379.308" y2="394" gradientUnits="userSpaceOnUse">
<stop stop-color="#1F382F"/>
<stop offset="1" stop-color="#1F382F" stop-opacity="0"/>
</linearGradient>
<clipPath id="clip0_2588_6090">
<rect width="736" height="394" fill="white"/>
</clipPath>
</defs>
</svg>
