<svg width="125" height="40" viewBox="0 0 125 40" fill="none" xmlns="http://www.w3.org/2000/svg">
<g clip-path="url(#clip0_94_1343)">
<path fill-rule="evenodd" clip-rule="evenodd" d="M124.818 13.8891L124.62 0.422479C124.611 0.299309 124.552 0.186403 124.458 0.108395C124.367 0.0293604 124.245 -0.00861836 124.123 0.00164694C124.09 0.00369978 124.056 0.0108847 124.025 0.0201225L111.453 4.87715L100.208 9.22304C99.8881 9.34719 99.9872 9.80807 100.356 9.91578L111.891 13.2496C113.867 13.8244 115.614 15.0017 116.887 16.6162L124.302 26.044C124.537 26.3447 125.003 26.2625 124.999 25.9208L124.82 13.8891H124.818ZM121.439 15.1875C121.425 15.3353 121.317 15.4564 121.171 15.4872C121.026 15.517 120.877 15.4481 120.807 15.3179C118.795 12.019 115.442 9.75978 111.624 9.13267C111.475 9.11726 111.354 9.00541 111.327 8.85867C111.301 8.71185 111.373 8.56407 111.508 8.49733L121.472 3.90616C121.653 3.82814 121.862 3.91026 121.941 4.08988C121.961 4.1371 121.971 4.18841 121.969 4.24076L121.438 15.1875" fill="white"/>
<path fill-rule="evenodd" clip-rule="evenodd" d="M113.738 15.5849L109.562 16.0674C109.446 16.0806 109.352 16.1689 109.332 16.2839C109.312 16.3988 109.373 16.5128 109.477 16.5641L112.257 17.8892C112.317 17.918 112.372 17.9548 112.422 17.9991L114.708 20.0878C114.794 20.1658 114.923 20.1781 115.023 20.1176C115.122 20.056 115.17 19.9369 115.139 19.824L114.022 15.7748C113.987 15.6506 113.867 15.5705 113.738 15.5849Z" fill="white"/>
<path fill-rule="evenodd" clip-rule="evenodd" d="M3.9161 13.1299V33.1215C3.9161 33.7476 3.40807 34.2546 2.78104 34.2546H0V14.2631C0 13.6369 0.508027 13.1299 1.13505 13.1299H3.9161ZM13.7771 19.4198C14.7982 19.4075 15.8141 19.584 16.7706 19.9443C18.5428 20.6094 19.9334 22.0176 20.5727 23.7975C20.9359 24.8013 21.1135 25.8626 21.097 26.9291C21.1135 27.9986 20.9359 29.0609 20.5727 30.0669C20.2494 30.9547 19.7415 31.7635 19.0826 32.4399C18.4279 33.1 17.6398 33.6121 16.7706 33.9416C15.8141 34.3009 14.7982 34.4795 13.7771 34.466C12.7477 34.4795 11.7247 34.3018 10.762 33.9426C9.88979 33.6132 9.09948 33.1009 8.44268 32.4399C7.78291 31.7625 7.27282 30.9537 6.9455 30.0669C6.57804 29.062 6.39744 27.9986 6.41287 26.9291C6.39647 25.8616 6.57707 24.8003 6.94646 23.7986C7.27282 22.9158 7.78291 22.112 8.44172 21.4398C9.10052 20.7829 9.89075 20.2727 10.761 19.9443C11.7257 19.585 12.7477 19.4055 13.7771 19.4198ZM13.7771 31.5337C14.8926 31.5337 15.7207 31.1487 16.2595 30.3789C16.7982 29.6091 17.0682 28.4635 17.0682 26.9424C17.0682 25.4315 16.7982 24.2912 16.2595 23.5214C15.7207 22.7516 14.8926 22.3666 13.776 22.3666C12.6317 22.3666 11.7902 22.7516 11.2515 23.5223C10.7118 24.2922 10.4418 25.4315 10.4418 26.9424C10.4418 28.4635 10.7118 29.6091 11.2505 30.3789C11.7893 31.1487 12.6328 31.5337 13.7771 31.5337ZM33.2413 34.2537C32.9519 34.27 32.6626 34.2167 32.3978 34.0986C32.1659 33.9446 31.9976 33.7137 31.9227 33.4469L31.6096 32.5252C31.268 32.8258 30.9109 33.1071 30.5393 33.3689C30.2007 33.6049 29.8384 33.8103 29.4608 33.9775C29.078 34.1458 28.6788 34.2711 28.2693 34.3532C27.8075 34.4415 27.3406 34.4846 26.8717 34.4804C26.2754 34.4877 25.6811 34.4015 25.1116 34.2259C24.6088 34.0699 24.1419 33.8123 23.7427 33.4675C23.3538 33.1246 23.0499 32.6945 22.856 32.2141C22.6385 31.664 22.5328 31.0758 22.5441 30.4846C22.5502 29.9232 22.6908 29.372 22.9546 28.8772C23.2932 28.2778 23.7786 27.7749 24.3677 27.4177C25.0347 26.9794 25.9234 26.613 27.0348 26.3204C28.1462 26.0289 29.5388 25.8637 31.2135 25.8247V25.0754C31.2135 24.1588 31.0196 23.4865 30.6317 23.0563C30.2438 22.6253 29.6855 22.4118 28.9579 22.4118C28.5001 22.3995 28.0446 22.4631 27.6095 22.6027C27.2841 22.7156 26.9691 22.8522 26.6654 23.0132L25.906 23.4238C25.6524 23.5563 25.3692 23.622 25.0839 23.6158C24.8376 23.624 24.5964 23.5522 24.3964 23.4106C24.2137 23.2771 24.0577 23.1109 23.9346 22.9209L23.2388 21.6748C24.07 20.9184 25.0377 20.3281 26.0916 19.9381C27.1744 19.548 28.3186 19.3531 29.4679 19.3633C30.2663 19.351 31.0596 19.4958 31.8026 19.7893C32.4614 20.0552 33.0567 20.4586 33.5471 20.9727C34.0336 21.4932 34.4081 22.108 34.6462 22.7792C34.908 23.5152 35.0372 24.2922 35.029 25.0734V34.2546L33.2413 34.2537ZM28.0918 31.8457C28.6737 31.858 29.2513 31.7399 29.781 31.4987C30.3166 31.2277 30.801 30.8654 31.2135 30.4281V28.1618C30.4141 28.1834 29.6178 28.2644 28.8297 28.4031C28.3084 28.4903 27.8003 28.6453 27.318 28.8629C27.0009 29.0014 26.7268 29.2211 26.5237 29.5003C26.3697 29.7343 26.2888 30.0073 26.2897 30.2876C26.2897 30.8541 26.4488 31.2555 26.7659 31.4915C27.083 31.7276 27.5253 31.8457 28.0918 31.8457ZM38.0943 34.2537V19.6477H40.506C40.9523 19.6149 41.3598 19.8981 41.4849 20.3272L41.7262 21.3475C42.0145 21.0683 42.3214 20.8075 42.6425 20.5674C42.9575 20.3333 43.2952 20.129 43.6492 19.9586C44.0166 19.7841 44.4015 19.6507 44.7986 19.5624C45.2389 19.465 45.6883 19.4178 46.1388 19.4208C46.8655 19.4075 47.5858 19.5471 48.2528 19.8314C48.8512 20.092 49.3817 20.4842 49.8075 20.9789C50.2406 21.4932 50.564 22.0915 50.7578 22.7352C50.9774 23.4608 51.0852 24.2163 51.076 24.9737V33.1205C51.076 33.7466 50.569 34.2537 49.942 34.2537H47.1743V24.9748C47.1743 24.1619 46.9855 23.5317 46.6069 23.0831C46.2291 22.6335 45.6709 22.4097 44.933 22.4097C44.3933 22.4056 43.8606 22.5288 43.3794 22.771C42.8766 23.0297 42.4146 23.3613 42.0104 23.7564V34.2537H38.0943ZM59.9015 19.392C60.4967 19.389 61.0888 19.4536 61.6686 19.5829C62.1971 19.702 62.7092 19.8858 63.1936 20.129L67.2236 18.302L67.4185 18.2169L67.4924 18.3339V20.1424C67.5027 20.3405 67.434 20.5345 67.3005 20.6812C67.1731 20.8146 66.9618 20.9123 65.4769 22.6366C65.6411 23.1149 65.7232 23.6179 65.718 24.1238C65.7294 24.8044 65.5765 25.4767 65.2716 26.0854C64.9751 26.6643 64.5564 27.1723 64.0443 27.5737C63.4933 28.0007 62.8683 28.323 62.2013 28.5242C61.4561 28.75 60.6804 28.8629 59.9025 28.8567C59.646 28.8567 59.3965 28.8465 59.1502 28.828C58.9039 28.8095 58.6638 28.7808 58.4268 28.7427C58.0388 28.9789 57.845 29.2437 57.8439 29.5362C57.8377 29.801 57.9999 30.0392 58.2492 30.1315C58.5879 30.2721 58.9471 30.3604 59.3124 30.3932C59.7527 30.4456 60.2535 30.4785 60.8169 30.4929C61.3793 30.5082 61.9518 30.538 62.5326 30.5852C63.1105 30.6324 63.683 30.7146 64.2496 30.8336C64.7812 30.9393 65.2902 31.1354 65.754 31.4146C66.1902 31.6794 66.5544 32.0469 66.8181 32.4841C67.1076 33.0076 67.2471 33.6009 67.2225 34.1982C67.2194 34.8613 67.0533 35.512 66.7402 36.0971C66.3953 36.7365 65.9192 37.298 65.3425 37.7394C64.6662 38.2556 63.9058 38.6488 63.093 38.9023C62.1109 39.2081 61.0857 39.357 60.0575 39.3406C59.0713 39.357 58.0871 39.2503 57.1266 39.0224C56.3999 38.852 55.7052 38.5646 55.07 38.1726C54.5734 37.8666 54.1567 37.4458 53.8561 36.947C53.5984 36.5086 53.4619 36.0098 53.4599 35.5018C53.4435 34.8941 53.6559 34.3029 54.0551 33.844C54.5035 33.3555 55.0639 32.9819 55.6868 32.753C55.3307 32.558 55.0289 32.2778 54.8073 31.938C54.5734 31.5429 54.4595 31.0871 54.481 30.6283C54.5004 30.1357 54.6657 29.6594 54.9561 29.2612C55.3255 28.7397 55.8274 28.3271 56.4103 28.0632C55.6939 27.6855 55.0865 27.1323 54.6442 26.4559C54.205 25.7579 53.9802 24.947 53.9976 24.1249C53.9874 23.4423 54.1413 22.7669 54.445 22.1552C54.7426 21.5701 55.1665 21.06 55.6868 20.6598C56.2481 20.2338 56.8834 19.9135 57.5606 19.7175C58.32 19.4947 59.1102 19.3849 59.9015 19.392ZM63.6051 34.849C63.6133 34.617 63.526 34.3912 63.3629 34.2259C63.1803 34.0514 62.9595 33.9211 62.7184 33.8431C62.4075 33.7404 62.0863 33.6706 61.7609 33.6378C61.3916 33.5957 60.9985 33.5618 60.5828 33.5382C60.1662 33.5135 59.7331 33.493 59.2837 33.4746C58.8352 33.456 58.397 33.4232 57.9711 33.375C57.6601 33.5566 57.3862 33.7938 57.1635 34.076C56.9583 34.3367 56.8475 34.659 56.8505 34.9906C56.8372 35.4833 57.1152 35.939 57.5596 36.1526C57.8767 36.3147 58.2164 36.4276 58.5674 36.4851C59.0825 36.5734 59.6049 36.6134 60.1283 36.6052C60.6752 36.6134 61.2212 36.5713 61.76 36.4778C62.1366 36.4163 62.5008 36.2942 62.8374 36.1166C63.3177 35.8775 63.6175 35.3837 63.6051 34.849ZM59.9005 26.4046C60.705 26.4046 61.2981 26.2013 61.6819 25.796C62.0739 25.3679 62.2802 24.8023 62.2567 24.2224C62.2567 23.5522 62.0657 23.0256 61.6819 22.6438C61.2992 22.2609 60.705 22.0689 59.9005 22.0689C59.0968 22.0689 58.5048 22.2609 58.1271 22.6438C57.7484 23.0266 57.5596 23.5522 57.5596 24.2224C57.5391 24.7992 57.7443 25.3617 58.1343 25.7887C58.5171 26.1993 59.1061 26.4046 59.9005 26.4046ZM73.4794 13.1299V33.1215C73.4794 33.7476 72.9703 34.2546 72.3443 34.2546H69.5632V14.2631C69.5632 13.6369 70.0713 13.1299 70.6983 13.1299H73.4794ZM81.2396 15.4957C81.2426 15.814 81.1753 16.128 81.0414 16.4165C80.9105 16.6966 80.7308 16.9512 80.5081 17.1678C80.284 17.3864 80.0192 17.56 79.7278 17.6779C79.4246 17.8011 79.0991 17.8647 78.7707 17.8627C78.4564 17.8627 78.1442 17.8011 77.855 17.6779C77.5717 17.5589 77.3136 17.3855 77.0954 17.1678C76.8794 16.9512 76.7034 16.6966 76.5784 16.4165C76.449 16.1271 76.3839 15.813 76.3868 15.4957C76.3846 15.1766 76.449 14.8594 76.5784 14.5679C76.7019 14.2857 76.878 14.028 77.0954 13.8094C77.3143 13.5928 77.5717 13.4194 77.855 13.3003C78.1442 13.1772 78.4564 13.1145 78.7707 13.1155C79.0991 13.1135 79.4246 13.176 79.7278 13.3003C80.0192 13.4183 80.284 13.5907 80.5081 13.8094C80.7315 14.028 80.912 14.2846 81.0414 14.5679C81.1753 14.8594 81.2419 15.1755 81.2396 15.4957ZM80.7714 19.6466V33.1205C80.7714 33.7466 80.2633 34.2537 79.6368 34.2537H76.8558V20.7809C76.8558 20.1547 77.3646 19.6466 77.9919 19.6466H80.7714ZM94.6612 34.2537C94.1605 34.2537 93.8388 34.0278 93.6967 33.5742L93.3706 32.2983C92.8003 32.9296 92.1257 33.4581 91.3772 33.8646C90.5643 34.2824 89.6598 34.4897 88.7456 34.466C87.997 34.4754 87.2567 34.305 86.588 33.9703C85.9179 33.6244 85.3373 33.1276 84.8942 32.5179C84.3817 31.8117 84.0052 31.0173 83.7796 30.1746C83.5007 29.14 83.3669 28.0726 83.3824 27.0009C83.3743 25.9735 83.5251 24.9502 83.8299 23.9689C84.0976 23.0892 84.5274 22.2681 85.0991 21.5466C85.6361 20.8753 86.3136 20.3281 87.0851 19.9454C87.8883 19.5512 88.7729 19.352 89.6672 19.3633C90.3543 19.3428 91.037 19.4639 91.6746 19.7175C92.2197 19.9535 92.7204 20.28 93.1568 20.6812V14.2631C93.1568 13.6369 93.6664 13.1299 94.2929 13.1299H97.0732V34.2537H94.6612ZM90.0932 31.4351C90.6982 31.4556 91.2973 31.316 91.8314 31.0307C92.3417 30.7258 92.7899 30.3296 93.1583 29.8626V23.4455C92.8358 23.0554 92.4253 22.7495 91.9586 22.5525C91.5237 22.382 91.0584 22.2958 90.5895 22.2979C90.145 22.2918 89.7034 22.3841 89.2981 22.5669C88.8979 22.7566 88.5533 23.0472 88.2981 23.4106C87.9919 23.8529 87.7722 24.3507 87.6531 24.8752C87.4896 25.5711 87.4142 26.2855 87.426 26.9999C87.4142 27.6949 87.4771 28.3876 87.6117 29.0682C87.7012 29.5557 87.8824 30.0217 88.1427 30.4436C88.3484 30.7689 88.6413 31.0317 88.9874 31.2011C89.3351 31.3601 89.7123 31.4402 90.0939 31.434L90.0932 31.4351ZM106.665 19.4198C107.548 19.4116 108.425 19.5624 109.254 19.8663C110.019 20.1495 110.715 20.5909 111.297 21.1637C111.887 21.7569 112.341 22.4692 112.63 23.2535C112.962 24.1588 113.124 25.1165 113.106 26.0792C113.109 26.3215 113.095 26.5617 113.064 26.8018C113.046 26.9609 112.997 27.1139 112.922 27.2555C112.862 27.3623 112.767 27.4454 112.652 27.4885C112.51 27.5357 112.362 27.5573 112.212 27.5521H103.43C103.553 28.9224 103.942 29.9232 104.599 30.5565C105.258 31.1888 106.121 31.5059 107.189 31.5049C107.662 31.5152 108.134 31.4504 108.588 31.314C108.944 31.2011 109.29 31.0595 109.622 30.8891C109.92 30.734 110.19 30.5914 110.431 30.4641C110.651 30.3419 110.896 30.2762 111.148 30.2732C111.425 30.2609 111.692 30.3881 111.856 30.6119L112.992 32.0294C112.595 32.4943 112.131 32.8977 111.616 33.2261C111.127 33.5372 110.603 33.7897 110.056 33.9775C109.525 34.1592 108.979 34.2875 108.424 34.3604C107.896 34.4291 107.367 34.4651 106.834 34.466C105.858 34.4743 104.89 34.3039 103.976 33.9632C103.107 33.6388 102.319 33.1318 101.663 32.4759C100.979 31.7789 100.449 30.9466 100.109 30.0319C99.7108 28.948 99.5192 27.8005 99.5414 26.6458C99.5355 25.6892 99.7012 24.7387 100.03 23.8406C100.656 22.1038 101.982 20.709 103.686 19.9935C104.629 19.5984 105.643 19.4034 106.665 19.4198ZM106.737 22.1686C105.8 22.1686 105.067 22.4355 104.537 22.9692C104.007 23.5029 103.663 24.2563 103.501 25.2294H109.602C109.604 24.8362 109.549 24.4441 109.438 24.0663C109.335 23.7092 109.158 23.3757 108.921 23.0892C108.678 22.8009 108.372 22.5709 108.028 22.4159C107.62 22.2414 107.179 22.1572 106.737 22.1686Z" fill="white"/>
</g>
<defs>
<clipPath id="clip0_94_1343">
<rect width="125" height="40" fill="white"/>
</clipPath>
</defs>
</svg>
