<svg width="64" height="64" viewBox="0 0 64 64" fill="none" xmlns="http://www.w3.org/2000/svg">
<rect width="64" height="64" rx="16" fill="#19CC61"/>
<path d="M45.3512 28.2502C45.3439 28.6735 45.2025 29.0836 44.9474 29.4215C44.6922 29.7593 44.3364 30.0075 43.9312 30.1302L34.8712 32.8502C34.399 32.9934 33.9695 33.2508 33.6207 33.5997C33.2718 33.9486 33.0144 34.3781 32.8712 34.8502L30.1512 43.9102C30.0284 44.3154 29.7803 44.6712 29.4424 44.9264C29.1046 45.1816 28.6945 45.323 28.2712 45.3302C27.8471 45.344 27.4296 45.2226 27.079 44.9835C26.7285 44.7444 26.4631 44.4001 26.3212 44.0002L18.7512 21.2802C18.6336 20.9278 18.6166 20.5496 18.7019 20.1881C18.7872 19.8266 18.9716 19.4959 19.2342 19.2332C19.4969 18.9706 19.8275 18.7863 20.1891 18.7009C20.5506 18.6156 20.9288 18.6327 21.2812 18.7502L44.0012 26.3202C44.4014 26.4577 44.7478 26.7186 44.9904 27.0654C45.233 27.4122 45.3593 27.827 45.3512 28.2502Z" fill="#065136"/>
</svg>
