<svg width="48" height="48" viewBox="0 0 48 48" fill="none" xmlns="http://www.w3.org/2000/svg">
<path d="M11.5794 27.8342H0V32.0866C0 38.1599 4.941 43.1009 11.0143 43.1009H22.5938V38.8485C22.5938 32.7752 17.6528 27.8342 11.5794 27.8342Z" fill="#19914A"/>
<path d="M25.4062 26.7165V30.5002C27.9337 27.1739 31.9302 25.0217 36.4206 25.0217H40.673V15.7021H36.4206C30.3472 15.7021 25.4062 20.6431 25.4062 26.7165Z" fill="#19CC61"/>
<path d="M30.5715 14.1899C30.4657 11.4041 29.1 8.76523 26.8713 7.07567L24.0005 4.89917L21.1296 7.07567C18.9011 8.76523 17.5354 11.4041 17.4297 14.1899C20.2861 15.5291 22.6124 17.8168 24.0005 20.6454C25.3888 17.8168 27.715 15.5291 30.5715 14.1899Z" fill="#99FE00"/>
<path d="M11.5806 15.7021H7.32812V25.0217H11.5805C16.0709 25.0217 20.0674 27.1739 22.5948 30.5002V26.7165C22.5949 20.6431 17.6539 15.7021 11.5806 15.7021Z" fill="#19CC61"/>
<path d="M36.4206 27.8342C30.3472 27.8342 25.4062 32.7752 25.4062 38.8485V43.1009H36.9857C43.059 43.1009 48 38.1599 48 32.0866V27.8342H36.4206Z" fill="#19914A"/>
</svg>
