<svg width="167" height="32" viewBox="0 0 167 32" fill="none" xmlns="http://www.w3.org/2000/svg">
<path d="M74.7058 9.36451H81.4026V15.7973C81.4024 15.8659 81.3751 15.9315 81.3266 15.9799C81.2781 16.0284 81.2124 16.0557 81.1439 16.0559H74.7058V9.36451Z" fill="white"/>
<path d="M97.3912 9.36451V16.0563H93.8281C91.372 16.0563 89.3803 18.0455 89.3803 20.4996V24.0261H85.8497C83.3936 24.0261 81.4031 26.0162 81.4031 28.4703V31.984H74.7068V25.2926H78.2357C80.6918 25.2926 82.6835 23.3026 82.6835 20.8484V17.3359H86.2466C88.7027 17.3359 90.6944 15.3458 90.6944 12.8917V9.36451H97.3912Z" fill="white"/>
<path d="M97.3922 31.9835H90.6954V25.5507C90.6954 25.4819 90.7227 25.416 90.7714 25.3674C90.8201 25.3188 90.8861 25.2914 90.9549 25.2914H97.3922V31.9835Z" fill="white"/>
<path d="M54.9136 9.36451C66.1 9.39682 66.294 25.909 54.9136 25.7475H43.1388V31.984H36.4141V9.36451H54.9136ZM54.9136 20.0603C57.209 20.0603 57.2414 15.0517 54.8489 15.0517H43.1388V20.0603H54.9136Z" fill="white"/>
<path d="M115.551 9.36451H122.956L115.325 20.6823L122.956 32H115.551L111.347 25.6944L107.143 32H99.7061L107.337 20.6823L99.7061 9.36451H107.143L111.347 15.6701L115.551 9.36451Z" fill="white"/>
<path d="M132.045 23.5178V26.2968H143.436V31.984H125.314V9.36451H143.047V15.0517H131.994V17.8307H139.358V23.5178H132.045Z" fill="white"/>
<path d="M159.64 20.6742V9.3645H166.37V31.984H159.64L152.134 20.6742V31.984H145.404V9.3645H152.134L159.64 20.6742Z" fill="white"/>
<path d="M65.6911 19.529V18.8845V9.36451H72.3909V18.8845V19.529V32H65.6911V19.529Z" fill="white"/>
<path d="M5.11037e-06 20.6672C5.11037e-06 17.3742 5.11037e-06 12.6345 5.11037e-06 9.34157C5.11037e-06 9.34157 0.596956 9.34157 1.55954 9.34157C3.83541 9.33468 6.11128 9.34157 8.38716 9.34157C9.47659 9.34157 10.0437 8.82489 10.0437 7.81909C10.0437 5.73859 10.0735 2.08055 10.0362 5.5521e-05L11.7674 0C14.1253 0.0482234 16.4908 0.0137782 18.8562 0.0137782C19.7964 0.0137782 20.3933 0.0137016 20.3933 0.0137016C20.4008 2.12864 20.3933 5.65592 20.3933 7.77086C20.3933 8.82489 20.9455 9.33468 22.0797 9.33468C24.5048 9.33468 26.9299 9.33468 29.355 9.33468C30.0788 9.33468 31.0408 9.33468 31.0408 9.33468C31.0184 9.48624 30.3326 10.6229 30.2505 10.7607C27.7955 14.9355 25.3331 19.1103 22.8781 23.285C22.4677 23.9877 22.3013 24.3322 22.3013 24.3322C19.5927 24.3322 13.7736 24.3449 11.0649 24.3449C11.0649 24.3449 11.4465 23.6915 11.9166 22.8924C14.2 19.0069 16.4609 15.1146 18.789 11.2567C19.4307 10.1889 18.8935 9.53446 17.6921 9.5758C15.8192 9.64469 13.9388 9.59647 12.0584 9.59647C10.8794 9.59647 10.3198 10.12 10.3198 11.2016C10.3198 17.6222 10.3198 24.0359 10.3272 30.4566C10.3272 31.0283 10.3272 31.9937 10.3272 31.9937C10.3272 31.9937 9.12588 31.9859 8.87964 31.9859C6.4023 31.9997 2.47734 31.9928 0 31.9928C0 31.9928 5.11037e-06 31.4417 5.11037e-06 30.6494C5.11037e-06 27.322 5.11037e-06 23.9946 5.11037e-06 20.6672Z" fill="#99FE00"/>
</svg>
