<svg width="116" height="24" viewBox="0 0 116 24" fill="none" xmlns="http://www.w3.org/2000/svg">
<path d="M1.03516 15.1945C1.03516 12.9398 1.03516 9.69447 1.03516 7.43973C1.03516 7.43973 1.4402 7.43973 2.09334 7.43973C3.63757 7.43502 5.1818 7.43973 6.72603 7.43973C7.46523 7.43973 7.85003 7.08596 7.85003 6.39727C7.85003 4.97273 7.87028 2.46803 7.84496 1.0435L9.01959 1.04346C10.6195 1.07648 12.2245 1.05289 13.8295 1.05289C14.4674 1.05289 14.8725 1.05284 14.8725 1.05284C14.8775 2.50096 14.8725 4.91613 14.8725 6.36425C14.8725 7.08596 15.2471 7.43502 16.0167 7.43502C17.6622 7.43502 19.3077 7.43502 20.9532 7.43502C21.4443 7.43502 22.097 7.43502 22.097 7.43502C22.0818 7.53879 21.6165 8.3171 21.5608 8.41144C19.895 11.27 18.2242 14.1285 16.5585 16.987C16.28 17.4681 16.1671 17.704 16.1671 17.704C14.3292 17.704 10.3808 17.7127 8.54294 17.7127C8.54294 17.7127 8.80188 17.2653 9.12085 16.7181C10.6701 14.0577 12.2043 11.3926 13.7839 8.75107C14.2193 8.01993 13.8548 7.57181 13.0397 7.60011C11.7688 7.64728 10.4929 7.61426 9.21705 7.61426C8.41709 7.61426 8.03736 7.97276 8.03736 8.71333C8.03736 13.1096 8.03736 17.5011 8.04242 21.8974C8.04242 22.2889 8.04242 22.9499 8.04242 22.9499C8.04242 22.9499 7.22727 22.9446 7.06019 22.9446C5.37926 22.954 2.71609 22.9493 1.03516 22.9493C1.03516 22.9493 1.03516 22.5719 1.03516 22.0295C1.03516 19.7512 1.03516 17.4728 1.03516 15.1945Z" fill="white"/>
<path d="M51.0522 22.9565H46.4956V7.45874H51.0522V22.9565Z" fill="white"/>
<path d="M77.5443 11.7758L80.4031 7.45874H85.4386L80.2489 15.2074L85.4386 22.9565H80.4031L77.5443 18.6394L74.6855 22.9565H69.6278L74.8175 15.2074L69.6278 7.45874H74.6855L77.5443 11.7758Z" fill="white"/>
<path fill-rule="evenodd" clip-rule="evenodd" d="M39.1667 7.45874C46.7738 7.48106 46.9057 18.786 39.1667 18.6756H31.1592V22.9453H26.5859V7.45874H39.1667ZM31.1592 14.7819H39.1667C40.7275 14.7816 40.7495 11.3527 39.1227 11.3524H31.1592V14.7819Z" fill="white"/>
<path d="M68.0534 12.0403H65.6305C63.9603 12.0403 62.6058 13.4023 62.6058 15.0826V17.4971H60.2047C58.5345 17.4972 57.181 18.8598 57.181 20.5399V22.9453H52.627V18.3643H55.0271C56.6973 18.3642 58.0518 17.0016 58.0518 15.3215V12.9166H60.4747C62.145 12.9166 63.4994 11.554 63.4994 9.87382V7.45874H68.0534V12.0403Z" fill="white"/>
<path d="M68.0545 22.9453H63.4999V18.5406C63.5 18.4936 63.519 18.4485 63.552 18.4153C63.5851 18.3821 63.6298 18.3633 63.6764 18.3633H68.0545V22.9453Z" fill="white"/>
<path d="M99.1021 11.3524H91.5851V13.2554H96.5932V17.1491H91.6195V19.0516H99.3661V22.9453H87.0422V7.45874H99.1021V11.3524Z" fill="white"/>
<path d="M110.386 15.2023V7.45874H114.963V22.9453H110.386L105.281 15.2023V22.9453H100.704V7.45874H105.281L110.386 15.2023Z" fill="white"/>
<path d="M57.1805 11.863C57.1803 11.9099 57.1619 11.9551 57.1289 11.9883C57.0959 12.0214 57.0511 12.0401 57.0045 12.0403H52.6265V7.45874H57.1805V11.863Z" fill="white"/>
</svg>
