<svg width="96" height="96" viewBox="0 0 96 96" fill="none" xmlns="http://www.w3.org/2000/svg">
<path d="M48.0008 8.00073C39.0874 8.00073 30.6158 11.0054 23.2045 16.8287L19.5009 14.1572C19.4826 14.6382 18.8058 32.0372 18.8454 31.0313C19.3331 30.8513 35.6841 24.804 34.6886 25.1721C34.2193 24.8345 30.7037 22.3035 31.1731 22.641C36.2883 19.1755 42.2337 17.5318 48.0008 17.5318C64.7821 17.5318 78.469 31.2187 78.469 48C78.469 53.7653 76.8754 59.1558 74.0159 63.7498L81.3754 61.8749L79.9222 71.8124C84.891 65.1561 88.0001 56.9061 88.0001 48C88.0001 26.0162 69.9846 8.00073 48.0008 8.00073Z" fill="#19CC61"/>
<path d="M47.9993 87.9992C54.1399 87.9992 59.9992 86.4368 65.2017 83.9057H65.2487C66.7019 83.2026 68.1552 82.4055 69.5144 81.515C69.9868 81.9404 73.7367 85.4712 73.2643 85.0464C73.3351 84.5704 75.8967 67.1604 75.7484 68.1559L59.3424 72.3275L62.2019 74.9056C57.4486 77.4306 52.6891 78.4682 47.9993 78.4682C31.218 78.4682 17.5311 64.7813 17.5311 48C17.5311 43.5469 18.4686 39.3283 20.2031 35.5313L13.8745 37.875L14.3439 26.7192C10.406 32.8599 8 40.1724 8 48C8 69.9838 26.0154 87.9992 47.9993 87.9992Z" fill="#99FE00"/>
<path d="M55.031 33.9377C55.031 37.8207 51.8829 40.9689 47.9999 40.9689C44.1169 40.9689 40.9688 37.8207 40.9688 33.9377C40.9688 30.0548 44.1169 26.9066 47.9999 26.9066C51.8829 26.9066 55.031 30.0548 55.031 33.9377Z" fill="#19914A"/>
<path d="M33.9375 55.0312V64.406H62.062V55.0312C62.062 49.9385 59.3289 45.519 55.2744 43.0514C53.2694 44.656 50.7615 45.6563 47.9997 45.6563C45.238 45.6563 42.7301 44.656 40.7251 43.0514C36.6706 45.519 33.9375 49.9385 33.9375 55.0312Z" fill="#19914A"/>
</svg>
