<svg width="96" height="96" viewBox="0 0 96 96" fill="none" xmlns="http://www.w3.org/2000/svg">
<g clip-path="url(#clip0_2673_3439)">
<path d="M25.4438 54.9904C25.741 54.542 26.0472 54.102 26.3738 53.6726L27.0399 52.7979L26.2596 52.3427C23.587 50.7845 20.5129 49.9612 17.367 49.9612C7.79102 49.9604 0 57.5496 0 66.8769V72.0747C0 73.0356 0.805941 73.8181 1.79711 73.8181H21.2289V68.9038C21.2289 68.3375 21.2546 67.7388 21.3083 67.0198L21.3348 66.6743C21.3915 66.0293 21.4716 65.3981 21.5691 64.8015L21.5843 64.7191C21.6924 64.0735 21.83 63.4218 21.9993 62.7443C22.1596 62.1161 22.3494 61.4757 22.5656 60.8421L21.8005 60.5896L22.6117 60.7068C23.0336 59.4896 23.5537 58.2943 24.1578 57.1542L24.2901 56.9039C24.5729 56.3822 24.8776 55.8659 25.1959 55.3684L25.4438 54.9904Z" fill="#99FE00"/>
<path d="M17.3672 45.6412C22.4312 45.6412 26.5509 41.6304 26.5509 36.7002C26.5509 31.7701 22.4312 27.7593 17.3672 27.7593C12.3033 27.7593 8.18359 31.7701 8.18359 36.701C8.18359 41.6304 12.3033 45.6412 17.3672 45.6412Z" fill="#99FE00"/>
<path d="M72.2904 67.3426C72.2745 67.0999 72.2579 66.8565 72.2329 66.6153C72.217 66.4535 72.1943 66.2932 72.1747 66.1322C72.149 65.9167 72.1233 65.7012 72.0908 65.4888C72.0658 65.3232 72.0348 65.1576 72.0061 64.9921C71.9698 64.7841 71.9335 64.5762 71.8919 64.3698C71.8594 64.2096 71.8224 64.05 71.7861 63.8897C71.7392 63.6796 71.6901 63.4686 71.6371 63.2607C71.5993 63.1118 71.5578 62.9636 71.5169 62.8162C71.4557 62.5954 71.3922 62.3754 71.3241 62.1577C71.2833 62.0269 71.2402 61.8961 71.1979 61.766C71.12 61.5301 71.0384 61.2958 70.9537 61.0629C70.9129 60.954 70.8728 60.8459 70.8312 60.737C70.7329 60.4823 70.6309 60.2297 70.5227 59.9787C70.4872 59.8948 70.4517 59.8117 70.4146 59.7277C70.2921 59.451 70.1651 59.1781 70.0328 58.9074C70.0048 58.8507 69.9776 58.794 69.9497 58.7381C69.8022 58.4417 69.6472 58.1484 69.487 57.8588C69.4703 57.8278 69.4529 57.7968 69.4363 57.7658C69.2594 57.4505 69.0757 57.1398 68.8844 56.8336C68.8806 56.8276 68.8776 56.8223 68.8738 56.8162C64.6687 50.0874 57.0652 45.5852 48.4017 45.5852C40.9993 45.5852 34.3718 48.874 29.9754 54.0279C29.9422 54.0672 29.9097 54.1058 29.8771 54.1444C29.6753 54.384 29.4795 54.6282 29.2874 54.8755C29.2443 54.9306 29.2005 54.9873 29.1574 55.0441C28.9843 55.2716 28.8149 55.5037 28.6501 55.7373C28.5941 55.8167 28.5382 55.8954 28.4838 55.9763C28.3409 56.1849 28.2018 56.3981 28.0649 56.6113C27.9969 56.7187 27.9273 56.8245 27.8615 56.9326C27.7496 57.1141 27.643 57.2986 27.5364 57.4823C27.454 57.6252 27.3694 57.7666 27.2907 57.911C27.2159 58.0463 27.1463 58.1847 27.0737 58.323C26.9724 58.5166 26.8696 58.7086 26.7736 58.9052C26.7668 58.918 26.7615 58.9316 26.7547 58.9452C26.1725 60.1436 25.6985 61.3888 25.3333 62.665C25.3205 62.7103 25.3069 62.7549 25.294 62.7995C25.2192 63.0694 25.1511 63.3401 25.0861 63.6115C25.0657 63.6954 25.0453 63.7794 25.0264 63.8625C24.9697 64.1113 24.9183 64.3608 24.8699 64.6103C24.8472 64.7259 24.8268 64.8416 24.8064 64.9573C24.7663 65.1848 24.7293 65.4124 24.696 65.6415C24.6741 65.7935 24.6544 65.9462 24.6363 66.0997C24.6113 66.3 24.5864 66.4996 24.5667 66.7007C24.5463 66.9064 24.5327 67.1128 24.5176 67.3192C24.507 67.4749 24.4926 67.6306 24.4851 67.7871C24.4669 68.1568 24.4556 68.5288 24.4556 68.9023V76.2132C24.4556 77.305 25.3757 78.1926 26.5052 78.1926H70.3005C71.43 78.1926 72.3501 77.305 72.3501 76.2132V68.9038C72.3501 68.5182 72.3395 68.1342 72.3198 67.7531C72.313 67.6163 72.2994 67.4794 72.2904 67.3426Z" fill="#19914A"/>
<path d="M47.8416 40.5476C54.2854 40.5476 59.527 35.4466 59.527 29.1775C59.527 22.9084 54.2854 17.8074 47.8416 17.8074C41.3979 17.8074 36.1562 22.9084 36.1562 29.1775C36.1562 35.4466 41.3986 40.5476 47.8416 40.5476Z" fill="#19914A"/>
<path d="M78.6324 48.7583C75.2249 48.7583 71.9172 49.7253 69.0692 51.5557L68.3154 52.0395L68.8855 52.7245C70.1587 54.2525 71.2572 55.9392 72.1486 57.7355L72.1879 57.8164C72.3519 58.1506 72.5092 58.4893 72.6627 58.8371L72.7194 58.9671C72.863 59.3021 72.9999 59.6393 73.1533 60.04L73.1828 60.1148C73.4747 60.8958 73.7264 61.6851 73.9321 62.4631L73.9797 62.6566C74.0614 62.9719 74.137 63.2887 74.2058 63.61L74.2882 64.022C74.3388 64.2753 74.3857 64.5286 74.428 64.7849C74.4537 64.9406 74.4772 65.0956 74.5006 65.2514C74.5369 65.4986 74.5702 65.7458 74.5981 65.9968C74.6155 66.1526 74.6344 66.3076 74.6496 66.4633C74.676 66.7317 74.6949 67.0016 74.7115 67.2723L74.7388 67.679C74.7584 68.085 74.7713 68.4925 74.7713 68.9015V72.6137H94.2031C95.1942 72.6137 96.0002 71.8312 96.0002 70.8695V65.6717C95.9994 56.3467 88.2084 48.7583 78.6324 48.7583Z" fill="#19CC61"/>
<path d="M78.6324 44.8563C83.6963 44.8563 87.816 40.8455 87.816 35.9153C87.816 30.9852 83.6963 26.9744 78.6324 26.9744C73.5684 26.9744 69.4487 30.9852 69.4487 35.9153C69.4487 40.8455 73.5684 44.8563 78.6324 44.8563Z" fill="#19CC61"/>
</g>
<defs>
<clipPath id="clip0_2673_3439">
<rect width="96" height="96" fill="white"/>
</clipPath>
</defs>
</svg>
