<svg width="96" height="96" viewBox="0 0 96 96" fill="none" xmlns="http://www.w3.org/2000/svg">
<path d="M58.4613 59.2021L65.1828 81.2959C65.8337 83.4356 68.8472 83.4818 69.5621 81.36L72.7089 72.0223C72.9395 71.3406 73.4725 70.8076 74.1541 70.577L83.4919 67.4303C85.611 66.7153 85.5675 63.7018 83.4278 63.051L61.3339 56.3295C59.5735 55.7965 57.9283 57.4416 58.4613 59.2021Z" fill="#99FE00"/>
<path d="M11 25C11 20.5817 14.5817 17 19 17H74C78.4183 17 82 20.5817 82 25V29H11V25Z" fill="#19CC61"/>
<path d="M82.3174 58.6924L62.4521 52.6523C61.863 52.4731 61.2584 52.3838 60.6514 52.3838C58.7219 52.3838 56.8819 53.3165 55.7236 54.877C54.5552 56.4528 54.2114 58.4386 54.7852 60.3193L59.4775 75.7559H20.5586C15.2799 75.7559 11.0001 71.4769 11 66.1982V31H82.3174V58.6924Z" fill="#19914A"/>
<path d="M25 43H46V45H25V66H23V45H17V43H23V37H25V43Z" fill="#002417"/>
</svg>
