<svg width="96" height="96" viewBox="0 0 96 96" fill="none" xmlns="http://www.w3.org/2000/svg">
<path d="M79.6563 48C82.3886 45.4995 84 41.9421 84 38.1562C84 30.9745 78.2852 25.0984 71.1508 24.8079C70.8593 17.6964 64.9643 12 57.7593 12C57.6331 12 57.5075 12.0016 57.3835 12.0049C54.6457 12.0807 52.0655 13.0838 50 14.8548V81.1458C52.0655 82.9162 54.6457 83.9193 57.3824 83.9951C57.5075 83.9984 57.6331 84 57.7593 84C63.4637 84 68.3463 80.4289 70.2779 75.412C65.6829 75.3312 61.3794 73.5141 58.128 70.2737C58.1159 70.2616 58.1043 70.2495 58.0922 70.2374C56.6555 68.7834 58.1495 66.3768 60.1059 66.9783C60.7374 67.1722 61.3155 67.5029 61.8143 67.9347C64.4733 70.2374 67.8327 71.319 71.1508 71.1839V71.1921C78.2852 70.9016 84 65.0255 84 57.8438C84 54.0579 82.3886 50.5005 79.6563 48Z" fill="#19914A"/>
<path d="M46 81.1455C43.9351 82.9164 41.3543 83.9193 38.6172 83.9951C38.4926 83.9984 38.3664 84 38.2402 84C31.0356 83.9998 25.1407 78.3036 24.8496 71.1924C17.7147 70.9017 12 65.0255 12 57.8438C12 54.1761 13.5122 50.7229 16.0908 48.2373L16.3438 48H46V81.1455Z" fill="#19CC61"/>
<path d="M44.927 27.4157C44.8597 27.2612 44.7489 27.1296 44.6082 27.0371C44.4676 26.9446 44.3031 26.8951 44.1348 26.8946H36.3343V13.8683C36.3343 13.6926 36.281 13.521 36.1816 13.3762C36.0822 13.2315 35.9414 13.1203 35.7776 13.0575C35.6138 12.9946 35.4349 12.983 35.2644 13.0242C35.0939 13.0654 34.9399 13.1574 34.8227 13.2882L19.2217 30.6567C19.1099 30.7815 19.0365 30.9361 19.0105 31.1019C18.9845 31.2676 19.007 31.4373 19.0752 31.5905C19.1434 31.7437 19.2544 31.8739 19.3949 31.9652C19.5353 32.0566 19.6991 32.1052 19.8666 32.1052H27.6671V45.1316C27.667 45.3073 27.7202 45.4789 27.8195 45.6237C27.9189 45.7686 28.0597 45.8798 28.2235 45.9427C28.3226 45.9804 28.4278 45.9998 28.5338 46C28.6555 46 28.7758 45.9743 28.8869 45.9246C28.998 45.875 29.0974 45.8024 29.1786 45.7117L44.7796 28.3432C44.8903 28.219 44.9631 28.0656 44.9892 27.9011C45.0153 27.7367 44.9937 27.5682 44.927 27.4157Z" fill="#99FE00"/>
</svg>
