<svg width="96" height="96" viewBox="0 0 96 96" fill="none" xmlns="http://www.w3.org/2000/svg">
<path d="M46.998 16C51.4163 16 54.998 19.5817 54.998 24V31.5059L28.1406 16H46.998Z" fill="#99FE00"/>
<path fill-rule="evenodd" clip-rule="evenodd" d="M55 35.333V72C55 76.4183 51.4183 80 47 80H22C17.5817 80 14 76.4183 14 72V24C14 19.7364 17.3353 16.2525 21.5391 16.0137L55 35.333ZM21.5 50C20.6716 50 20 50.6716 20 51.5C20 52.3284 20.6716 53 21.5 53H27.5C28.3284 53 29 52.3284 29 51.5C29 50.6716 28.3284 50 27.5 50H21.5ZM21.5 44C20.6716 44 20 44.6716 20 45.5C20 46.3284 20.6716 47 21.5 47H36.5C37.3284 47 38 46.3284 38 45.5C38 44.6716 37.3284 44 36.5 44H21.5ZM21.5 38C20.6716 38 20 38.6716 20 39.5C20 40.3284 20.6716 41 21.5 41H47.5C48.3284 41 49 40.3284 49 39.5C49 38.6716 48.3284 38 47.5 38H21.5Z" fill="#19914A"/>
<path d="M51.1004 49.1004C56.5677 43.6332 65.4319 43.6332 70.8993 49.1004C75.8866 54.0878 76.3234 61.9009 72.2118 67.3846L82.2118 77.3846L79.3836 80.2127L69.3836 70.2127C63.9 74.3235 56.0875 73.8863 51.1004 68.8993C45.6332 63.4319 45.6331 54.5677 51.1004 49.1004Z" fill="#19CC61"/>
</svg>
