<svg width="96" height="96" viewBox="0 0 96 96" fill="none" xmlns="http://www.w3.org/2000/svg">
<path d="M81.5765 16.1772H52.705L46.9636 9.35343C46.7705 9.12127 46.4811 8.99107 46.1793 9.00048H22.9002C19.6742 9.00577 16.9463 11.389 16.5078 14.585H37.7398C38.8532 14.5822 39.9103 15.0736 40.6262 15.9262L45.5283 21.7538H73.0978C78.1969 21.7624 82.3286 25.8941 82.3373 30.9933V63.8414C85.5703 63.438 87.9976 60.6915 88.0002 57.4333V22.6323C87.9918 19.0829 85.1256 16.2031 81.5765 16.1772Z" fill="#19CC61"/>
<path d="M37.7109 17.3613C38.0125 17.352 38.302 17.4819 38.4951 17.7139L44.2363 24.5381H73.0996C76.6672 24.5424 79.5582 27.4334 79.5625 31.001V65.8017C79.5582 69.3693 76.6672 72.2603 73.0996 72.2646H61.9951C61.7773 62.5127 53.8042 54.6738 44 54.6738C34.1958 54.6738 26.2227 62.5127 26.0049 72.2646H14.4629C10.8954 72.2603 8.00431 69.3693 8 65.8017V23.832C8.00003 20.2766 10.8684 17.3872 14.4238 17.3613H37.7109Z" fill="#19914A"/>
<path d="M55.1815 67.8591C55.0094 65.8368 54.1059 63.8576 52.5569 62.3087C49.3299 59.0817 44.3819 58.7805 41.5422 61.6202L29.4518 73.7106C28.8494 74.313 28.8494 75.2596 29.4518 75.8189C30.0541 76.4213 31.0007 76.4213 31.5601 75.8189L43.6505 63.7285C45.3285 62.0505 48.3403 62.3517 50.4056 64.417C51.4382 65.4496 52.0406 66.7404 52.1697 68.0742C52.2557 69.322 51.9115 70.4406 51.137 71.2151L46.4902 75.8619L39.7781 82.531C38.7024 83.6067 36.8523 83.4776 35.6476 82.2729C34.4428 81.0681 34.3137 79.218 35.3894 78.1423L39.3909 74.1409C39.3909 74.1409 39.3909 74.1409 39.4339 74.0979L45.9309 67.6009C46.189 67.3427 46.7053 67.3427 47.0065 67.687C47.3077 67.9881 47.3507 68.5045 47.0926 68.7626L38.4873 77.4539C37.8849 78.0563 37.8849 79.0029 38.4873 79.5622C38.7885 79.8634 39.1757 79.9925 39.563 79.9925C39.9502 79.9925 40.3374 79.8634 40.6386 79.5622L49.2869 70.9139C50.7498 69.451 50.7068 67.0416 49.2009 65.5787C47.6949 64.0727 45.2855 64.0297 43.8656 65.4926L40.0362 69.322C40.0362 69.322 40.0362 69.322 39.9932 69.365L33.2811 76.0341C31.0437 78.2714 31.1728 82.0147 33.5393 84.4242C34.787 85.6719 36.379 86.2743 37.971 86.2743C39.4339 86.2743 40.8537 85.758 41.9294 84.6823L44.1237 82.488L53.2453 73.3664C54.6652 71.9466 55.3536 70.0104 55.1815 67.8591Z" fill="#99FE00"/>
</svg>
